%TF.GenerationSoftware,KiCad,Pcbnew,(7.0.0)*%
%TF.CreationDate,2023-03-01T10:12:41+08:00*%
%TF.ProjectId,DAP_Link_V0_1,4441505f-4c69-46e6-9b5f-56305f312e6b,rev?*%
%TF.SameCoordinates,Original*%
%TF.FileFunction,Drillmap*%
%TF.FilePolarity,Positive*%
%FSLAX45Y45*%
G04 Gerber Fmt 4.5, Leading zero omitted, Abs format (unit mm)*
G04 Created by KiCad (PCBNEW (7.0.0)) date 2023-03-01 10:12:41*
%MOMM*%
%LPD*%
G01*
G04 APERTURE LIST*
%ADD10C,0.100000*%
%ADD11C,0.200000*%
%ADD12C,0.025000*%
%ADD13C,0.040000*%
%ADD14C,0.060000*%
G04 APERTURE END LIST*
D10*
X13060000Y-8100000D02*
G75*
G03*
X13060000Y-8100000I-160000J0D01*
G01*
X8660000Y-7000000D02*
G75*
G03*
X8660000Y-7000000I-160000J0D01*
G01*
X13200000Y-8400000D02*
X13200000Y-5400000D01*
X9100000Y-7300000D02*
X8200000Y-7300000D01*
X9100000Y-8400000D02*
X13200000Y-8400000D01*
X8200000Y-5400000D02*
X8200000Y-7300000D01*
X9100000Y-8400000D02*
X9100000Y-7300000D01*
X13200000Y-5400000D02*
X8200000Y-5400000D01*
D11*
D12*
X8308540Y-6200340D02*
X8333540Y-6225340D01*
X8333540Y-6200340D02*
X8308540Y-6225340D01*
X8979100Y-5829500D02*
X9004100Y-5854500D01*
X9004100Y-5829500D02*
X8979100Y-5854500D01*
X8979100Y-5905700D02*
X9004100Y-5930700D01*
X9004100Y-5905700D02*
X8979100Y-5930700D01*
X8979100Y-5981900D02*
X9004100Y-6006900D01*
X9004100Y-5981900D02*
X8979100Y-6006900D01*
X8979100Y-6058100D02*
X9004100Y-6083100D01*
X9004100Y-6058100D02*
X8979100Y-6083100D01*
X9055300Y-5829500D02*
X9080300Y-5854500D01*
X9080300Y-5829500D02*
X9055300Y-5854500D01*
X9055300Y-5905700D02*
X9080300Y-5930700D01*
X9080300Y-5905700D02*
X9055300Y-5930700D01*
X9055300Y-5981900D02*
X9080300Y-6006900D01*
X9080300Y-5981900D02*
X9055300Y-6006900D01*
X9055300Y-6058100D02*
X9080300Y-6083100D01*
X9080300Y-6058100D02*
X9055300Y-6083100D01*
X9131500Y-5829500D02*
X9156500Y-5854500D01*
X9156500Y-5829500D02*
X9131500Y-5854500D01*
X9131500Y-5905700D02*
X9156500Y-5930700D01*
X9156500Y-5905700D02*
X9131500Y-5930700D01*
X9131500Y-5981900D02*
X9156500Y-6006900D01*
X9156500Y-5981900D02*
X9131500Y-6006900D01*
X9131500Y-6058100D02*
X9156500Y-6083100D01*
X9156500Y-6058100D02*
X9131500Y-6083100D01*
X9131500Y-6909000D02*
X9156500Y-6934000D01*
X9156500Y-6909000D02*
X9131500Y-6934000D01*
X9131500Y-6985200D02*
X9156500Y-7010200D01*
X9156500Y-6985200D02*
X9131500Y-7010200D01*
X9131500Y-7061400D02*
X9156500Y-7086400D01*
X9156500Y-7061400D02*
X9131500Y-7086400D01*
X9182300Y-7569400D02*
X9207300Y-7594400D01*
X9207300Y-7569400D02*
X9182300Y-7594400D01*
X9195000Y-6858200D02*
X9220000Y-6883200D01*
X9220000Y-6858200D02*
X9195000Y-6883200D01*
X9195000Y-7328100D02*
X9220000Y-7353100D01*
X9220000Y-7328100D02*
X9195000Y-7353100D01*
X9207700Y-5829500D02*
X9232700Y-5854500D01*
X9232700Y-5829500D02*
X9207700Y-5854500D01*
X9207700Y-5905700D02*
X9232700Y-5930700D01*
X9232700Y-5905700D02*
X9207700Y-5930700D01*
X9207700Y-5981900D02*
X9232700Y-6006900D01*
X9232700Y-5981900D02*
X9207700Y-6006900D01*
X9207700Y-6058100D02*
X9232700Y-6083100D01*
X9232700Y-6058100D02*
X9207700Y-6083100D01*
X9258500Y-7569400D02*
X9283500Y-7594400D01*
X9283500Y-7569400D02*
X9258500Y-7594400D01*
X9271200Y-6858200D02*
X9296200Y-6883200D01*
X9296200Y-6858200D02*
X9271200Y-6883200D01*
X9271200Y-7328100D02*
X9296200Y-7353100D01*
X9296200Y-7328100D02*
X9271200Y-7353100D01*
X9283900Y-5829500D02*
X9308900Y-5854500D01*
X9308900Y-5829500D02*
X9283900Y-5854500D01*
X9283900Y-5905700D02*
X9308900Y-5930700D01*
X9308900Y-5905700D02*
X9283900Y-5930700D01*
X9283900Y-5981900D02*
X9308900Y-6006900D01*
X9308900Y-5981900D02*
X9283900Y-6006900D01*
X9283900Y-6058100D02*
X9308900Y-6083100D01*
X9308900Y-6058100D02*
X9283900Y-6083100D01*
X9347400Y-6858200D02*
X9372400Y-6883200D01*
X9372400Y-6858200D02*
X9347400Y-6883200D01*
X9347400Y-7328100D02*
X9372400Y-7353100D01*
X9372400Y-7328100D02*
X9347400Y-7353100D01*
X9360100Y-5829500D02*
X9385100Y-5854500D01*
X9385100Y-5829500D02*
X9360100Y-5854500D01*
X9360100Y-5905700D02*
X9385100Y-5930700D01*
X9385100Y-5905700D02*
X9360100Y-5930700D01*
X9360100Y-5981900D02*
X9385100Y-6006900D01*
X9385100Y-5981900D02*
X9360100Y-6006900D01*
X9360100Y-6058100D02*
X9385100Y-6083100D01*
X9385100Y-6058100D02*
X9360100Y-6083100D01*
X9436300Y-5829500D02*
X9461300Y-5854500D01*
X9461300Y-5829500D02*
X9436300Y-5854500D01*
X9436300Y-5905700D02*
X9461300Y-5930700D01*
X9461300Y-5905700D02*
X9436300Y-5930700D01*
X9436300Y-5981900D02*
X9461300Y-6006900D01*
X9461300Y-5981900D02*
X9436300Y-6006900D01*
X9436300Y-6058100D02*
X9461300Y-6083100D01*
X9461300Y-6058100D02*
X9436300Y-6083100D01*
X9461700Y-7226500D02*
X9486700Y-7251500D01*
X9486700Y-7226500D02*
X9461700Y-7251500D01*
X9499800Y-7798000D02*
X9524800Y-7823000D01*
X9524800Y-7798000D02*
X9499800Y-7823000D01*
X9512500Y-5829500D02*
X9537500Y-5854500D01*
X9537500Y-5829500D02*
X9512500Y-5854500D01*
X9512500Y-5905700D02*
X9537500Y-5930700D01*
X9537500Y-5905700D02*
X9512500Y-5930700D01*
X9512500Y-5981900D02*
X9537500Y-6006900D01*
X9537500Y-5981900D02*
X9512500Y-6006900D01*
X9512500Y-6058100D02*
X9537500Y-6083100D01*
X9537500Y-6058100D02*
X9512500Y-6083100D01*
X9512500Y-7290000D02*
X9537500Y-7315000D01*
X9537500Y-7290000D02*
X9512500Y-7315000D01*
X9550600Y-8077400D02*
X9575600Y-8102400D01*
X9575600Y-8077400D02*
X9550600Y-8102400D01*
X9563300Y-7861500D02*
X9588300Y-7886500D01*
X9588300Y-7861500D02*
X9563300Y-7886500D01*
X9576000Y-6616900D02*
X9601000Y-6641900D01*
X9601000Y-6616900D02*
X9576000Y-6641900D01*
X9576000Y-6693100D02*
X9601000Y-6718100D01*
X9601000Y-6693100D02*
X9576000Y-6718100D01*
X9576000Y-6756600D02*
X9601000Y-6781600D01*
X9601000Y-6756600D02*
X9576000Y-6781600D01*
X9576000Y-6832800D02*
X9601000Y-6857800D01*
X9601000Y-6832800D02*
X9576000Y-6857800D01*
X9576000Y-7137600D02*
X9601000Y-7162600D01*
X9601000Y-7137600D02*
X9576000Y-7162600D01*
X9576000Y-7239200D02*
X9601000Y-7264200D01*
X9601000Y-7239200D02*
X9576000Y-7264200D01*
X9586160Y-7589720D02*
X9611160Y-7614720D01*
X9611160Y-7589720D02*
X9586160Y-7614720D01*
X9588700Y-5829500D02*
X9613700Y-5854500D01*
X9613700Y-5829500D02*
X9588700Y-5854500D01*
X9588700Y-5905700D02*
X9613700Y-5930700D01*
X9613700Y-5905700D02*
X9588700Y-5930700D01*
X9588700Y-5981900D02*
X9613700Y-6006900D01*
X9613700Y-5981900D02*
X9588700Y-6006900D01*
X9588700Y-6058100D02*
X9613700Y-6083100D01*
X9613700Y-6058100D02*
X9588700Y-6083100D01*
X9614100Y-6553400D02*
X9639100Y-6578400D01*
X9639100Y-6553400D02*
X9614100Y-6578400D01*
X9639500Y-8064700D02*
X9664500Y-8089700D01*
X9664500Y-8064700D02*
X9639500Y-8089700D01*
X9664900Y-5829500D02*
X9689900Y-5854500D01*
X9689900Y-5829500D02*
X9664900Y-5854500D01*
X9664900Y-5905700D02*
X9689900Y-5930700D01*
X9689900Y-5905700D02*
X9664900Y-5930700D01*
X9664900Y-5981900D02*
X9689900Y-6006900D01*
X9689900Y-5981900D02*
X9664900Y-6006900D01*
X9664900Y-6058100D02*
X9689900Y-6083100D01*
X9689900Y-6058100D02*
X9664900Y-6083100D01*
X9703000Y-6553400D02*
X9728000Y-6578400D01*
X9728000Y-6553400D02*
X9703000Y-6578400D01*
X9715700Y-8064700D02*
X9740700Y-8089700D01*
X9740700Y-8064700D02*
X9715700Y-8089700D01*
X9741100Y-5829500D02*
X9766100Y-5854500D01*
X9766100Y-5829500D02*
X9741100Y-5854500D01*
X9741100Y-5905700D02*
X9766100Y-5930700D01*
X9766100Y-5905700D02*
X9741100Y-5930700D01*
X9741100Y-5981900D02*
X9766100Y-6006900D01*
X9766100Y-5981900D02*
X9741100Y-6006900D01*
X9741100Y-6058100D02*
X9766100Y-6083100D01*
X9766100Y-6058100D02*
X9741100Y-6083100D01*
X9791900Y-8064700D02*
X9816900Y-8089700D01*
X9816900Y-8064700D02*
X9791900Y-8089700D01*
X9817300Y-5829500D02*
X9842300Y-5854500D01*
X9842300Y-5829500D02*
X9817300Y-5854500D01*
X9817300Y-5905700D02*
X9842300Y-5930700D01*
X9842300Y-5905700D02*
X9817300Y-5930700D01*
X9817300Y-5981900D02*
X9842300Y-6006900D01*
X9842300Y-5981900D02*
X9817300Y-6006900D01*
X9817300Y-6058100D02*
X9842300Y-6083100D01*
X9842300Y-6058100D02*
X9817300Y-6083100D01*
X9893500Y-6202880D02*
X9918500Y-6227880D01*
X9918500Y-6202880D02*
X9893500Y-6227880D01*
X9995100Y-7442400D02*
X10020100Y-7467400D01*
X10020100Y-7442400D02*
X9995100Y-7467400D01*
X10007800Y-6693100D02*
X10032800Y-6718100D01*
X10032800Y-6693100D02*
X10007800Y-6718100D01*
X10058600Y-7391600D02*
X10083600Y-7416600D01*
X10083600Y-7391600D02*
X10058600Y-7416600D01*
X10071300Y-7861500D02*
X10096300Y-7886500D01*
X10096300Y-7861500D02*
X10071300Y-7886500D01*
X10084000Y-6616900D02*
X10109000Y-6641900D01*
X10109000Y-6616900D02*
X10084000Y-6641900D01*
X10084000Y-6693100D02*
X10109000Y-6718100D01*
X10109000Y-6693100D02*
X10084000Y-6718100D01*
X10147500Y-7785300D02*
X10172500Y-7810300D01*
X10172500Y-7785300D02*
X10147500Y-7810300D01*
X10147500Y-7861500D02*
X10172500Y-7886500D01*
X10172500Y-7861500D02*
X10147500Y-7886500D01*
X10160200Y-6616900D02*
X10185200Y-6641900D01*
X10185200Y-6616900D02*
X10160200Y-6641900D01*
X10236400Y-6616900D02*
X10261400Y-6641900D01*
X10261400Y-6616900D02*
X10236400Y-6641900D01*
X10236400Y-7709100D02*
X10261400Y-7734100D01*
X10261400Y-7709100D02*
X10236400Y-7734100D01*
X10236400Y-7785300D02*
X10261400Y-7810300D01*
X10261400Y-7785300D02*
X10236400Y-7810300D01*
X10236400Y-7861500D02*
X10261400Y-7886500D01*
X10261400Y-7861500D02*
X10236400Y-7886500D01*
X10312600Y-7683700D02*
X10337600Y-7708700D01*
X10337600Y-7683700D02*
X10312600Y-7708700D01*
X10317680Y-7218880D02*
X10342680Y-7243880D01*
X10342680Y-7218880D02*
X10317680Y-7243880D01*
X10350700Y-6934400D02*
X10375700Y-6959400D01*
X10375700Y-6934400D02*
X10350700Y-6959400D01*
X10350700Y-7023300D02*
X10375700Y-7048300D01*
X10375700Y-7023300D02*
X10350700Y-7048300D01*
X10350700Y-7112200D02*
X10375700Y-7137200D01*
X10375700Y-7112200D02*
X10350700Y-7137200D01*
X10376100Y-7328100D02*
X10401100Y-7353100D01*
X10401100Y-7328100D02*
X10376100Y-7353100D01*
X10376100Y-7556700D02*
X10401100Y-7581700D01*
X10401100Y-7556700D02*
X10376100Y-7581700D01*
X10376100Y-7632900D02*
X10401100Y-7657900D01*
X10401100Y-7632900D02*
X10376100Y-7657900D01*
X10395150Y-7418270D02*
X10420150Y-7443270D01*
X10420150Y-7418270D02*
X10395150Y-7443270D01*
X10421820Y-5986050D02*
X10446820Y-6011050D01*
X10446820Y-5986050D02*
X10421820Y-6011050D01*
X10439600Y-6934400D02*
X10464600Y-6959400D01*
X10464600Y-6934400D02*
X10439600Y-6959400D01*
X10439600Y-7023300D02*
X10464600Y-7048300D01*
X10464600Y-7023300D02*
X10439600Y-7048300D01*
X10439600Y-7112200D02*
X10464600Y-7137200D01*
X10464600Y-7112200D02*
X10439600Y-7137200D01*
X10449760Y-8227260D02*
X10474760Y-8252260D01*
X10474760Y-8227260D02*
X10449760Y-8252260D01*
X10459620Y-8021820D02*
X10484620Y-8046820D01*
X10484620Y-8021820D02*
X10459620Y-8046820D01*
X10492940Y-5791700D02*
X10517940Y-5816700D01*
X10517940Y-5791700D02*
X10492940Y-5816700D01*
X10547550Y-5734250D02*
X10572550Y-5759250D01*
X10572550Y-5734250D02*
X10547550Y-5759250D01*
X10581840Y-7518600D02*
X10606840Y-7543600D01*
X10606840Y-7518600D02*
X10581840Y-7543600D01*
X10627560Y-5854900D02*
X10652560Y-5879900D01*
X10652560Y-5854900D02*
X10627560Y-5879900D01*
X10632640Y-5931100D02*
X10657640Y-5956100D01*
X10657640Y-5931100D02*
X10632640Y-5956100D01*
X10670740Y-7518600D02*
X10695740Y-7543600D01*
X10695740Y-7518600D02*
X10670740Y-7543600D01*
X10752020Y-7592260D02*
X10777020Y-7617260D01*
X10777020Y-7592260D02*
X10752020Y-7617260D01*
X10832500Y-7646400D02*
X10857500Y-7671400D01*
X10857500Y-7646400D02*
X10832500Y-7671400D01*
X10901880Y-7559240D02*
X10926880Y-7584240D01*
X10926880Y-7559240D02*
X10901880Y-7584240D01*
X10985700Y-6870900D02*
X11010700Y-6895900D01*
X11010700Y-6870900D02*
X10985700Y-6895900D01*
X10985700Y-6947100D02*
X11010700Y-6972100D01*
X11010700Y-6947100D02*
X10985700Y-6972100D01*
X10985700Y-7023300D02*
X11010700Y-7048300D01*
X11010700Y-7023300D02*
X10985700Y-7048300D01*
X10985700Y-7251900D02*
X11010700Y-7276900D01*
X11010700Y-7251900D02*
X10985700Y-7276900D01*
X10985700Y-7328100D02*
X11010700Y-7353100D01*
X11010700Y-7328100D02*
X10985700Y-7353100D01*
X10985700Y-7404300D02*
X11010700Y-7429300D01*
X11010700Y-7404300D02*
X10985700Y-7429300D01*
X10985700Y-7480500D02*
X11010700Y-7505500D01*
X11010700Y-7480500D02*
X10985700Y-7505500D01*
X10985700Y-7556700D02*
X11010700Y-7581700D01*
X11010700Y-7556700D02*
X10985700Y-7581700D01*
X10985700Y-7632900D02*
X11010700Y-7657900D01*
X11010700Y-7632900D02*
X10985700Y-7657900D01*
X11031420Y-8022450D02*
X11056420Y-8047450D01*
X11056420Y-8022450D02*
X11031420Y-8047450D01*
X11061900Y-6870900D02*
X11086900Y-6895900D01*
X11086900Y-6870900D02*
X11061900Y-6895900D01*
X11061900Y-6947100D02*
X11086900Y-6972100D01*
X11086900Y-6947100D02*
X11061900Y-6972100D01*
X11061900Y-7023300D02*
X11086900Y-7048300D01*
X11086900Y-7023300D02*
X11061900Y-7048300D01*
X11061900Y-7251900D02*
X11086900Y-7276900D01*
X11086900Y-7251900D02*
X11061900Y-7276900D01*
X11061900Y-7328100D02*
X11086900Y-7353100D01*
X11086900Y-7328100D02*
X11061900Y-7353100D01*
X11061900Y-7404300D02*
X11086900Y-7429300D01*
X11086900Y-7404300D02*
X11061900Y-7429300D01*
X11061900Y-7480500D02*
X11086900Y-7505500D01*
X11086900Y-7480500D02*
X11061900Y-7505500D01*
X11061900Y-7556700D02*
X11086900Y-7581700D01*
X11086900Y-7556700D02*
X11061900Y-7581700D01*
X11061900Y-7632900D02*
X11086900Y-7657900D01*
X11086900Y-7632900D02*
X11061900Y-7657900D01*
X11135560Y-6538160D02*
X11160560Y-6563160D01*
X11160560Y-6538160D02*
X11135560Y-6563160D01*
X11138100Y-6870900D02*
X11163100Y-6895900D01*
X11163100Y-6870900D02*
X11138100Y-6895900D01*
X11138100Y-6947100D02*
X11163100Y-6972100D01*
X11163100Y-6947100D02*
X11138100Y-6972100D01*
X11138100Y-7023300D02*
X11163100Y-7048300D01*
X11163100Y-7023300D02*
X11138100Y-7048300D01*
X11138100Y-7251900D02*
X11163100Y-7276900D01*
X11163100Y-7251900D02*
X11138100Y-7276900D01*
X11138100Y-7328100D02*
X11163100Y-7353100D01*
X11163100Y-7328100D02*
X11138100Y-7353100D01*
X11138100Y-7404300D02*
X11163100Y-7429300D01*
X11163100Y-7404300D02*
X11138100Y-7429300D01*
X11138100Y-7480500D02*
X11163100Y-7505500D01*
X11163100Y-7480500D02*
X11138100Y-7505500D01*
X11138100Y-7556700D02*
X11163100Y-7581700D01*
X11163100Y-7556700D02*
X11138100Y-7581700D01*
X11138100Y-7632900D02*
X11163100Y-7657900D01*
X11163100Y-7632900D02*
X11138100Y-7657900D01*
X11379400Y-8318700D02*
X11404400Y-8343700D01*
X11404400Y-8318700D02*
X11379400Y-8343700D01*
X11455600Y-8318700D02*
X11480600Y-8343700D01*
X11480600Y-8318700D02*
X11455600Y-8343700D01*
X11481000Y-7772600D02*
X11506000Y-7797600D01*
X11506000Y-7772600D02*
X11481000Y-7797600D01*
X11481000Y-7848800D02*
X11506000Y-7873800D01*
X11506000Y-7848800D02*
X11481000Y-7873800D01*
X11481000Y-7925000D02*
X11506000Y-7950000D01*
X11506000Y-7925000D02*
X11481000Y-7950000D01*
X11506400Y-7569400D02*
X11531400Y-7594400D01*
X11531400Y-7569400D02*
X11506400Y-7594400D01*
X11531800Y-8318700D02*
X11556800Y-8343700D01*
X11556800Y-8318700D02*
X11531800Y-8343700D01*
X11557200Y-7848800D02*
X11582200Y-7873800D01*
X11582200Y-7848800D02*
X11557200Y-7873800D01*
X11557200Y-7925000D02*
X11582200Y-7950000D01*
X11582200Y-7925000D02*
X11557200Y-7950000D01*
X11582600Y-7150300D02*
X11607600Y-7175300D01*
X11607600Y-7150300D02*
X11582600Y-7175300D01*
X11587680Y-7413250D02*
X11612680Y-7438250D01*
X11612680Y-7413250D02*
X11587680Y-7438250D01*
X11658800Y-7074100D02*
X11683800Y-7099100D01*
X11683800Y-7074100D02*
X11658800Y-7099100D01*
X11658800Y-7150300D02*
X11683800Y-7175300D01*
X11683800Y-7150300D02*
X11658800Y-7175300D01*
X11735000Y-6997900D02*
X11760000Y-7022900D01*
X11760000Y-6997900D02*
X11735000Y-7022900D01*
X11735000Y-7074100D02*
X11760000Y-7099100D01*
X11760000Y-7074100D02*
X11735000Y-7099100D01*
X11735000Y-7150300D02*
X11760000Y-7175300D01*
X11760000Y-7150300D02*
X11735000Y-7175300D01*
X11785800Y-6121600D02*
X11810800Y-6146600D01*
X11810800Y-6121600D02*
X11785800Y-6146600D01*
X11862000Y-6045400D02*
X11887000Y-6070400D01*
X11887000Y-6045400D02*
X11862000Y-6070400D01*
X11912800Y-5981900D02*
X11937800Y-6006900D01*
X11937800Y-5981900D02*
X11912800Y-6006900D01*
X11912800Y-8318700D02*
X11937800Y-8343700D01*
X11937800Y-8318700D02*
X11912800Y-8343700D01*
X11963600Y-5918400D02*
X11988600Y-5943400D01*
X11988600Y-5918400D02*
X11963600Y-5943400D01*
X11972490Y-6470850D02*
X11997490Y-6495850D01*
X11997490Y-6470850D02*
X11972490Y-6495850D01*
X11976300Y-6769300D02*
X12001300Y-6794300D01*
X12001300Y-6769300D02*
X11976300Y-6794300D01*
X11976300Y-6832800D02*
X12001300Y-6857800D01*
X12001300Y-6832800D02*
X11976300Y-6857800D01*
X11976300Y-6896300D02*
X12001300Y-6921300D01*
X12001300Y-6896300D02*
X11976300Y-6921300D01*
X11976300Y-6972500D02*
X12001300Y-6997500D01*
X12001300Y-6972500D02*
X11976300Y-6997500D01*
X11976300Y-7048700D02*
X12001300Y-7073700D01*
X12001300Y-7048700D02*
X11976300Y-7073700D01*
X11976300Y-7569400D02*
X12001300Y-7594400D01*
X12001300Y-7569400D02*
X11976300Y-7594400D01*
X11989000Y-8318700D02*
X12014000Y-8343700D01*
X12014000Y-8318700D02*
X11989000Y-8343700D01*
X12032180Y-7295080D02*
X12057180Y-7320080D01*
X12057180Y-7295080D02*
X12032180Y-7320080D01*
X12065200Y-8318700D02*
X12090200Y-8343700D01*
X12090200Y-8318700D02*
X12065200Y-8343700D01*
X12103300Y-7569400D02*
X12128300Y-7594400D01*
X12128300Y-7569400D02*
X12103300Y-7594400D01*
X12116000Y-7300160D02*
X12141000Y-7325160D01*
X12141000Y-7300160D02*
X12116000Y-7325160D01*
X12141400Y-6782000D02*
X12166400Y-6807000D01*
X12166400Y-6782000D02*
X12141400Y-6807000D01*
X12141400Y-6921700D02*
X12166400Y-6946700D01*
X12166400Y-6921700D02*
X12141400Y-6946700D01*
X12141400Y-7074100D02*
X12166400Y-7099100D01*
X12166400Y-7074100D02*
X12141400Y-7099100D01*
X12154100Y-8318700D02*
X12179100Y-8343700D01*
X12179100Y-8318700D02*
X12154100Y-8343700D01*
X12192200Y-7607500D02*
X12217200Y-7632500D01*
X12217200Y-7607500D02*
X12192200Y-7632500D01*
X12230300Y-8318700D02*
X12255300Y-8343700D01*
X12255300Y-8318700D02*
X12230300Y-8343700D01*
X12268400Y-7607500D02*
X12293400Y-7632500D01*
X12293400Y-7607500D02*
X12268400Y-7632500D01*
X12370000Y-6426400D02*
X12395000Y-6451400D01*
X12395000Y-6426400D02*
X12370000Y-6451400D01*
X12370000Y-6502600D02*
X12395000Y-6527600D01*
X12395000Y-6502600D02*
X12370000Y-6527600D01*
X12370000Y-7150300D02*
X12395000Y-7175300D01*
X12395000Y-7150300D02*
X12370000Y-7175300D01*
X12382700Y-7607500D02*
X12407700Y-7632500D01*
X12407700Y-7607500D02*
X12382700Y-7632500D01*
X12408100Y-8306000D02*
X12433100Y-8331000D01*
X12433100Y-8306000D02*
X12408100Y-8331000D01*
X12420800Y-7201100D02*
X12445800Y-7226100D01*
X12445800Y-7201100D02*
X12420800Y-7226100D01*
X12420800Y-7277300D02*
X12445800Y-7302300D01*
X12445800Y-7277300D02*
X12420800Y-7302300D01*
X12433500Y-7417000D02*
X12458500Y-7442000D01*
X12458500Y-7417000D02*
X12433500Y-7442000D01*
X12446200Y-7569400D02*
X12471200Y-7594400D01*
X12471200Y-7569400D02*
X12446200Y-7594400D01*
X12446200Y-7658300D02*
X12471200Y-7683300D01*
X12471200Y-7658300D02*
X12446200Y-7683300D01*
X12446200Y-7785300D02*
X12471200Y-7810300D01*
X12471200Y-7785300D02*
X12446200Y-7810300D01*
X12484300Y-7950400D02*
X12509300Y-7975400D01*
X12509300Y-7950400D02*
X12484300Y-7975400D01*
X12484300Y-8115500D02*
X12509300Y-8140500D01*
X12509300Y-8115500D02*
X12484300Y-8140500D01*
X12484300Y-8306000D02*
X12509300Y-8331000D01*
X12509300Y-8306000D02*
X12484300Y-8331000D01*
X12547800Y-7404300D02*
X12572800Y-7429300D01*
X12572800Y-7404300D02*
X12547800Y-7429300D01*
X12560500Y-8306000D02*
X12585500Y-8331000D01*
X12585500Y-8306000D02*
X12560500Y-8331000D01*
X12598600Y-7810700D02*
X12623600Y-7835700D01*
X12623600Y-7810700D02*
X12598600Y-7835700D01*
X12611300Y-5588200D02*
X12636300Y-5613200D01*
X12636300Y-5588200D02*
X12611300Y-5613200D01*
X12611300Y-5664400D02*
X12636300Y-5689400D01*
X12636300Y-5664400D02*
X12611300Y-5689400D01*
X12687500Y-5588200D02*
X12712500Y-5613200D01*
X12712500Y-5588200D02*
X12687500Y-5613200D01*
X12687500Y-5664400D02*
X12712500Y-5689400D01*
X12712500Y-5664400D02*
X12687500Y-5689400D01*
X12763700Y-5588200D02*
X12788700Y-5613200D01*
X12788700Y-5588200D02*
X12763700Y-5613200D01*
X12763700Y-5664400D02*
X12788700Y-5689400D01*
X12788700Y-5664400D02*
X12763700Y-5689400D01*
X12796720Y-6009840D02*
X12821720Y-6034840D01*
X12821720Y-6009840D02*
X12796720Y-6034840D01*
X12839900Y-5588200D02*
X12864900Y-5613200D01*
X12864900Y-5588200D02*
X12839900Y-5613200D01*
X12839900Y-5664400D02*
X12864900Y-5689400D01*
X12864900Y-5664400D02*
X12839900Y-5689400D01*
X12903400Y-5753300D02*
X12928400Y-5778300D01*
X12928400Y-5753300D02*
X12903400Y-5778300D01*
X12916100Y-5588200D02*
X12941100Y-5613200D01*
X12941100Y-5588200D02*
X12916100Y-5613200D01*
X12916100Y-5664400D02*
X12941100Y-5689400D01*
X12941100Y-5664400D02*
X12916100Y-5689400D01*
X13055800Y-7759900D02*
X13080800Y-7784900D01*
X13080800Y-7759900D02*
X13055800Y-7784900D01*
X13081200Y-7378900D02*
X13106200Y-7403900D01*
X13106200Y-7378900D02*
X13081200Y-7403900D01*
X13081200Y-7455100D02*
X13106200Y-7480100D01*
X13106200Y-7455100D02*
X13081200Y-7480100D01*
X13081200Y-7531300D02*
X13106200Y-7556300D01*
X13106200Y-7531300D02*
X13081200Y-7556300D01*
X13081200Y-7607500D02*
X13106200Y-7632500D01*
X13106200Y-7607500D02*
X13081200Y-7632500D01*
X13081200Y-7683700D02*
X13106200Y-7708700D01*
X13106200Y-7683700D02*
X13081200Y-7708700D01*
D13*
X10398440Y-6228080D02*
G75*
G03*
X10398440Y-6228080I-20000J0D01*
G01*
X12491400Y-6865800D02*
G75*
G03*
X12491400Y-6865800I-20000J0D01*
G01*
X12516800Y-6324600D02*
G75*
G03*
X12516800Y-6324600I-20000J0D01*
G01*
D14*
X9646920Y-8166580D02*
X9646920Y-8226580D01*
X9616920Y-8196580D02*
X9676920Y-8196580D01*
X10015220Y-6955000D02*
X10015220Y-7015000D01*
X9985220Y-6985000D02*
X10045220Y-6985000D01*
X10073640Y-8103080D02*
X10073640Y-8163080D01*
X10043640Y-8133080D02*
X10103640Y-8133080D01*
X11356340Y-7874480D02*
X11356340Y-7934480D01*
X11326340Y-7904480D02*
X11386340Y-7904480D01*
X11871960Y-7239480D02*
X11871960Y-7299480D01*
X11841960Y-7269480D02*
X11901960Y-7269480D01*
X11932920Y-6162520D02*
X11932920Y-6222520D01*
X11902920Y-6192520D02*
X11962920Y-6192520D01*
X12446000Y-5839940D02*
X12446000Y-5899940D01*
X12416000Y-5869940D02*
X12476000Y-5869940D01*
X12693813Y-6167813D02*
X12693813Y-6125387D01*
X12651387Y-6125387D01*
X12651387Y-6167813D01*
X12693813Y-6167813D01*
D11*
X12617600Y-6176600D02*
X12727600Y-6176600D01*
X12727600Y-6176600D02*
G75*
G03*
X12727600Y-6116600I0J30000D01*
G01*
X12727600Y-6116600D02*
X12617600Y-6116600D01*
X12617600Y-6116600D02*
G75*
G03*
X12617600Y-6176600I0J-30000D01*
G01*
D14*
X12693813Y-7031813D02*
X12693813Y-6989387D01*
X12651387Y-6989387D01*
X12651387Y-7031813D01*
X12693813Y-7031813D01*
D11*
X12617600Y-7040600D02*
X12727600Y-7040600D01*
X12727600Y-7040600D02*
G75*
G03*
X12727600Y-6980600I0J30000D01*
G01*
X12727600Y-6980600D02*
X12617600Y-6980600D01*
X12617600Y-6980600D02*
G75*
G03*
X12617600Y-7040600I0J-30000D01*
G01*
D14*
X13111813Y-6167813D02*
X13111813Y-6125387D01*
X13069387Y-6125387D01*
X13069387Y-6167813D01*
X13111813Y-6167813D01*
D11*
X13060600Y-6176600D02*
X13120600Y-6176600D01*
X13120600Y-6176600D02*
G75*
G03*
X13120600Y-6116600I0J30000D01*
G01*
X13120600Y-6116600D02*
X13060600Y-6116600D01*
X13060600Y-6116600D02*
G75*
G03*
X13060600Y-6176600I0J-30000D01*
G01*
D14*
X13111813Y-7031813D02*
X13111813Y-6989387D01*
X13069387Y-6989387D01*
X13069387Y-7031813D01*
X13111813Y-7031813D01*
D11*
X13060600Y-7040600D02*
X13120600Y-7040600D01*
X13120600Y-7040600D02*
G75*
G03*
X13120600Y-6980600I0J30000D01*
G01*
X13120600Y-6980600D02*
X13060600Y-6980600D01*
X13060600Y-6980600D02*
G75*
G03*
X13060600Y-7040600I0J-30000D01*
G01*
X8442619Y-8698476D02*
X8442619Y-8498476D01*
X8442619Y-8498476D02*
X8490238Y-8498476D01*
X8490238Y-8498476D02*
X8518810Y-8508000D01*
X8518810Y-8508000D02*
X8537857Y-8527048D01*
X8537857Y-8527048D02*
X8547381Y-8546095D01*
X8547381Y-8546095D02*
X8556905Y-8584190D01*
X8556905Y-8584190D02*
X8556905Y-8612762D01*
X8556905Y-8612762D02*
X8547381Y-8650857D01*
X8547381Y-8650857D02*
X8537857Y-8669905D01*
X8537857Y-8669905D02*
X8518810Y-8688952D01*
X8518810Y-8688952D02*
X8490238Y-8698476D01*
X8490238Y-8698476D02*
X8442619Y-8698476D01*
X8642619Y-8698476D02*
X8642619Y-8565143D01*
X8642619Y-8603238D02*
X8652143Y-8584190D01*
X8652143Y-8584190D02*
X8661667Y-8574667D01*
X8661667Y-8574667D02*
X8680714Y-8565143D01*
X8680714Y-8565143D02*
X8699762Y-8565143D01*
X8766429Y-8698476D02*
X8766429Y-8565143D01*
X8766429Y-8498476D02*
X8756905Y-8508000D01*
X8756905Y-8508000D02*
X8766429Y-8517524D01*
X8766429Y-8517524D02*
X8775952Y-8508000D01*
X8775952Y-8508000D02*
X8766429Y-8498476D01*
X8766429Y-8498476D02*
X8766429Y-8517524D01*
X8890238Y-8698476D02*
X8871190Y-8688952D01*
X8871190Y-8688952D02*
X8861667Y-8669905D01*
X8861667Y-8669905D02*
X8861667Y-8498476D01*
X8995000Y-8698476D02*
X8975952Y-8688952D01*
X8975952Y-8688952D02*
X8966429Y-8669905D01*
X8966429Y-8669905D02*
X8966429Y-8498476D01*
X9191190Y-8698476D02*
X9191190Y-8498476D01*
X9191190Y-8498476D02*
X9257857Y-8641333D01*
X9257857Y-8641333D02*
X9324524Y-8498476D01*
X9324524Y-8498476D02*
X9324524Y-8698476D01*
X9505476Y-8698476D02*
X9505476Y-8593714D01*
X9505476Y-8593714D02*
X9495952Y-8574667D01*
X9495952Y-8574667D02*
X9476905Y-8565143D01*
X9476905Y-8565143D02*
X9438809Y-8565143D01*
X9438809Y-8565143D02*
X9419762Y-8574667D01*
X9505476Y-8688952D02*
X9486429Y-8698476D01*
X9486429Y-8698476D02*
X9438809Y-8698476D01*
X9438809Y-8698476D02*
X9419762Y-8688952D01*
X9419762Y-8688952D02*
X9410238Y-8669905D01*
X9410238Y-8669905D02*
X9410238Y-8650857D01*
X9410238Y-8650857D02*
X9419762Y-8631810D01*
X9419762Y-8631810D02*
X9438809Y-8622286D01*
X9438809Y-8622286D02*
X9486429Y-8622286D01*
X9486429Y-8622286D02*
X9505476Y-8612762D01*
X9600714Y-8565143D02*
X9600714Y-8765143D01*
X9600714Y-8574667D02*
X9619762Y-8565143D01*
X9619762Y-8565143D02*
X9657857Y-8565143D01*
X9657857Y-8565143D02*
X9676905Y-8574667D01*
X9676905Y-8574667D02*
X9686429Y-8584190D01*
X9686429Y-8584190D02*
X9695952Y-8603238D01*
X9695952Y-8603238D02*
X9695952Y-8660381D01*
X9695952Y-8660381D02*
X9686429Y-8679429D01*
X9686429Y-8679429D02*
X9676905Y-8688952D01*
X9676905Y-8688952D02*
X9657857Y-8698476D01*
X9657857Y-8698476D02*
X9619762Y-8698476D01*
X9619762Y-8698476D02*
X9600714Y-8688952D01*
X9781667Y-8679429D02*
X9791190Y-8688952D01*
X9791190Y-8688952D02*
X9781667Y-8698476D01*
X9781667Y-8698476D02*
X9772143Y-8688952D01*
X9772143Y-8688952D02*
X9781667Y-8679429D01*
X9781667Y-8679429D02*
X9781667Y-8698476D01*
X9781667Y-8574667D02*
X9791190Y-8584190D01*
X9791190Y-8584190D02*
X9781667Y-8593714D01*
X9781667Y-8593714D02*
X9772143Y-8584190D01*
X9772143Y-8584190D02*
X9781667Y-8574667D01*
X9781667Y-8574667D02*
X9781667Y-8593714D01*
D12*
X8170000Y-9032500D02*
X8195000Y-9057500D01*
X8195000Y-9032500D02*
X8170000Y-9057500D01*
D11*
X8480714Y-8918476D02*
X8499762Y-8918476D01*
X8499762Y-8918476D02*
X8518810Y-8928000D01*
X8518810Y-8928000D02*
X8528333Y-8937524D01*
X8528333Y-8937524D02*
X8537857Y-8956571D01*
X8537857Y-8956571D02*
X8547381Y-8994667D01*
X8547381Y-8994667D02*
X8547381Y-9042286D01*
X8547381Y-9042286D02*
X8537857Y-9080381D01*
X8537857Y-9080381D02*
X8528333Y-9099429D01*
X8528333Y-9099429D02*
X8518810Y-9108952D01*
X8518810Y-9108952D02*
X8499762Y-9118476D01*
X8499762Y-9118476D02*
X8480714Y-9118476D01*
X8480714Y-9118476D02*
X8461667Y-9108952D01*
X8461667Y-9108952D02*
X8452143Y-9099429D01*
X8452143Y-9099429D02*
X8442619Y-9080381D01*
X8442619Y-9080381D02*
X8433095Y-9042286D01*
X8433095Y-9042286D02*
X8433095Y-8994667D01*
X8433095Y-8994667D02*
X8442619Y-8956571D01*
X8442619Y-8956571D02*
X8452143Y-8937524D01*
X8452143Y-8937524D02*
X8461667Y-8928000D01*
X8461667Y-8928000D02*
X8480714Y-8918476D01*
X8633095Y-9099429D02*
X8642619Y-9108952D01*
X8642619Y-9108952D02*
X8633095Y-9118476D01*
X8633095Y-9118476D02*
X8623571Y-9108952D01*
X8623571Y-9108952D02*
X8633095Y-9099429D01*
X8633095Y-9099429D02*
X8633095Y-9118476D01*
X8718810Y-8937524D02*
X8728333Y-8928000D01*
X8728333Y-8928000D02*
X8747381Y-8918476D01*
X8747381Y-8918476D02*
X8795000Y-8918476D01*
X8795000Y-8918476D02*
X8814048Y-8928000D01*
X8814048Y-8928000D02*
X8823571Y-8937524D01*
X8823571Y-8937524D02*
X8833095Y-8956571D01*
X8833095Y-8956571D02*
X8833095Y-8975619D01*
X8833095Y-8975619D02*
X8823571Y-9004190D01*
X8823571Y-9004190D02*
X8709286Y-9118476D01*
X8709286Y-9118476D02*
X8833095Y-9118476D01*
X9014048Y-8918476D02*
X8918810Y-8918476D01*
X8918810Y-8918476D02*
X8909286Y-9013714D01*
X8909286Y-9013714D02*
X8918810Y-9004190D01*
X8918810Y-9004190D02*
X8937857Y-8994667D01*
X8937857Y-8994667D02*
X8985476Y-8994667D01*
X8985476Y-8994667D02*
X9004524Y-9004190D01*
X9004524Y-9004190D02*
X9014048Y-9013714D01*
X9014048Y-9013714D02*
X9023571Y-9032762D01*
X9023571Y-9032762D02*
X9023571Y-9080381D01*
X9023571Y-9080381D02*
X9014048Y-9099429D01*
X9014048Y-9099429D02*
X9004524Y-9108952D01*
X9004524Y-9108952D02*
X8985476Y-9118476D01*
X8985476Y-9118476D02*
X8937857Y-9118476D01*
X8937857Y-9118476D02*
X8918810Y-9108952D01*
X8918810Y-9108952D02*
X8909286Y-9099429D01*
X9147381Y-8918476D02*
X9166429Y-8918476D01*
X9166429Y-8918476D02*
X9185476Y-8928000D01*
X9185476Y-8928000D02*
X9195000Y-8937524D01*
X9195000Y-8937524D02*
X9204524Y-8956571D01*
X9204524Y-8956571D02*
X9214048Y-8994667D01*
X9214048Y-8994667D02*
X9214048Y-9042286D01*
X9214048Y-9042286D02*
X9204524Y-9080381D01*
X9204524Y-9080381D02*
X9195000Y-9099429D01*
X9195000Y-9099429D02*
X9185476Y-9108952D01*
X9185476Y-9108952D02*
X9166429Y-9118476D01*
X9166429Y-9118476D02*
X9147381Y-9118476D01*
X9147381Y-9118476D02*
X9128333Y-9108952D01*
X9128333Y-9108952D02*
X9118810Y-9099429D01*
X9118810Y-9099429D02*
X9109286Y-9080381D01*
X9109286Y-9080381D02*
X9099762Y-9042286D01*
X9099762Y-9042286D02*
X9099762Y-8994667D01*
X9099762Y-8994667D02*
X9109286Y-8956571D01*
X9109286Y-8956571D02*
X9118810Y-8937524D01*
X9118810Y-8937524D02*
X9128333Y-8928000D01*
X9128333Y-8928000D02*
X9147381Y-8918476D01*
X9299762Y-9118476D02*
X9299762Y-8985143D01*
X9299762Y-9004190D02*
X9309286Y-8994667D01*
X9309286Y-8994667D02*
X9328333Y-8985143D01*
X9328333Y-8985143D02*
X9356905Y-8985143D01*
X9356905Y-8985143D02*
X9375952Y-8994667D01*
X9375952Y-8994667D02*
X9385476Y-9013714D01*
X9385476Y-9013714D02*
X9385476Y-9118476D01*
X9385476Y-9013714D02*
X9395000Y-8994667D01*
X9395000Y-8994667D02*
X9414048Y-8985143D01*
X9414048Y-8985143D02*
X9442619Y-8985143D01*
X9442619Y-8985143D02*
X9461667Y-8994667D01*
X9461667Y-8994667D02*
X9471191Y-9013714D01*
X9471191Y-9013714D02*
X9471191Y-9118476D01*
X9566429Y-9118476D02*
X9566429Y-8985143D01*
X9566429Y-9004190D02*
X9575952Y-8994667D01*
X9575952Y-8994667D02*
X9595000Y-8985143D01*
X9595000Y-8985143D02*
X9623572Y-8985143D01*
X9623572Y-8985143D02*
X9642619Y-8994667D01*
X9642619Y-8994667D02*
X9652143Y-9013714D01*
X9652143Y-9013714D02*
X9652143Y-9118476D01*
X9652143Y-9013714D02*
X9661667Y-8994667D01*
X9661667Y-8994667D02*
X9680714Y-8985143D01*
X9680714Y-8985143D02*
X9709286Y-8985143D01*
X9709286Y-8985143D02*
X9728333Y-8994667D01*
X9728333Y-8994667D02*
X9737857Y-9013714D01*
X9737857Y-9013714D02*
X9737857Y-9118476D01*
X10095952Y-8908952D02*
X9924524Y-9166095D01*
X10320714Y-8918476D02*
X10339762Y-8918476D01*
X10339762Y-8918476D02*
X10358810Y-8928000D01*
X10358810Y-8928000D02*
X10368333Y-8937524D01*
X10368333Y-8937524D02*
X10377857Y-8956571D01*
X10377857Y-8956571D02*
X10387381Y-8994667D01*
X10387381Y-8994667D02*
X10387381Y-9042286D01*
X10387381Y-9042286D02*
X10377857Y-9080381D01*
X10377857Y-9080381D02*
X10368333Y-9099429D01*
X10368333Y-9099429D02*
X10358810Y-9108952D01*
X10358810Y-9108952D02*
X10339762Y-9118476D01*
X10339762Y-9118476D02*
X10320714Y-9118476D01*
X10320714Y-9118476D02*
X10301667Y-9108952D01*
X10301667Y-9108952D02*
X10292143Y-9099429D01*
X10292143Y-9099429D02*
X10282619Y-9080381D01*
X10282619Y-9080381D02*
X10273095Y-9042286D01*
X10273095Y-9042286D02*
X10273095Y-8994667D01*
X10273095Y-8994667D02*
X10282619Y-8956571D01*
X10282619Y-8956571D02*
X10292143Y-8937524D01*
X10292143Y-8937524D02*
X10301667Y-8928000D01*
X10301667Y-8928000D02*
X10320714Y-8918476D01*
X10473095Y-9099429D02*
X10482619Y-9108952D01*
X10482619Y-9108952D02*
X10473095Y-9118476D01*
X10473095Y-9118476D02*
X10463572Y-9108952D01*
X10463572Y-9108952D02*
X10473095Y-9099429D01*
X10473095Y-9099429D02*
X10473095Y-9118476D01*
X10606429Y-8918476D02*
X10625476Y-8918476D01*
X10625476Y-8918476D02*
X10644524Y-8928000D01*
X10644524Y-8928000D02*
X10654048Y-8937524D01*
X10654048Y-8937524D02*
X10663572Y-8956571D01*
X10663572Y-8956571D02*
X10673095Y-8994667D01*
X10673095Y-8994667D02*
X10673095Y-9042286D01*
X10673095Y-9042286D02*
X10663572Y-9080381D01*
X10663572Y-9080381D02*
X10654048Y-9099429D01*
X10654048Y-9099429D02*
X10644524Y-9108952D01*
X10644524Y-9108952D02*
X10625476Y-9118476D01*
X10625476Y-9118476D02*
X10606429Y-9118476D01*
X10606429Y-9118476D02*
X10587381Y-9108952D01*
X10587381Y-9108952D02*
X10577857Y-9099429D01*
X10577857Y-9099429D02*
X10568333Y-9080381D01*
X10568333Y-9080381D02*
X10558810Y-9042286D01*
X10558810Y-9042286D02*
X10558810Y-8994667D01*
X10558810Y-8994667D02*
X10568333Y-8956571D01*
X10568333Y-8956571D02*
X10577857Y-8937524D01*
X10577857Y-8937524D02*
X10587381Y-8928000D01*
X10587381Y-8928000D02*
X10606429Y-8918476D01*
X10796905Y-8918476D02*
X10815953Y-8918476D01*
X10815953Y-8918476D02*
X10835000Y-8928000D01*
X10835000Y-8928000D02*
X10844524Y-8937524D01*
X10844524Y-8937524D02*
X10854048Y-8956571D01*
X10854048Y-8956571D02*
X10863572Y-8994667D01*
X10863572Y-8994667D02*
X10863572Y-9042286D01*
X10863572Y-9042286D02*
X10854048Y-9080381D01*
X10854048Y-9080381D02*
X10844524Y-9099429D01*
X10844524Y-9099429D02*
X10835000Y-9108952D01*
X10835000Y-9108952D02*
X10815953Y-9118476D01*
X10815953Y-9118476D02*
X10796905Y-9118476D01*
X10796905Y-9118476D02*
X10777857Y-9108952D01*
X10777857Y-9108952D02*
X10768333Y-9099429D01*
X10768333Y-9099429D02*
X10758810Y-9080381D01*
X10758810Y-9080381D02*
X10749286Y-9042286D01*
X10749286Y-9042286D02*
X10749286Y-8994667D01*
X10749286Y-8994667D02*
X10758810Y-8956571D01*
X10758810Y-8956571D02*
X10768333Y-8937524D01*
X10768333Y-8937524D02*
X10777857Y-8928000D01*
X10777857Y-8928000D02*
X10796905Y-8918476D01*
X10958810Y-9118476D02*
X10996905Y-9118476D01*
X10996905Y-9118476D02*
X11015953Y-9108952D01*
X11015953Y-9108952D02*
X11025476Y-9099429D01*
X11025476Y-9099429D02*
X11044524Y-9070857D01*
X11044524Y-9070857D02*
X11054048Y-9032762D01*
X11054048Y-9032762D02*
X11054048Y-8956571D01*
X11054048Y-8956571D02*
X11044524Y-8937524D01*
X11044524Y-8937524D02*
X11035000Y-8928000D01*
X11035000Y-8928000D02*
X11015953Y-8918476D01*
X11015953Y-8918476D02*
X10977857Y-8918476D01*
X10977857Y-8918476D02*
X10958810Y-8928000D01*
X10958810Y-8928000D02*
X10949286Y-8937524D01*
X10949286Y-8937524D02*
X10939762Y-8956571D01*
X10939762Y-8956571D02*
X10939762Y-9004190D01*
X10939762Y-9004190D02*
X10949286Y-9023238D01*
X10949286Y-9023238D02*
X10958810Y-9032762D01*
X10958810Y-9032762D02*
X10977857Y-9042286D01*
X10977857Y-9042286D02*
X11015953Y-9042286D01*
X11015953Y-9042286D02*
X11035000Y-9032762D01*
X11035000Y-9032762D02*
X11044524Y-9023238D01*
X11044524Y-9023238D02*
X11054048Y-9004190D01*
X11168333Y-9004190D02*
X11149286Y-8994667D01*
X11149286Y-8994667D02*
X11139762Y-8985143D01*
X11139762Y-8985143D02*
X11130238Y-8966095D01*
X11130238Y-8966095D02*
X11130238Y-8956571D01*
X11130238Y-8956571D02*
X11139762Y-8937524D01*
X11139762Y-8937524D02*
X11149286Y-8928000D01*
X11149286Y-8928000D02*
X11168333Y-8918476D01*
X11168333Y-8918476D02*
X11206429Y-8918476D01*
X11206429Y-8918476D02*
X11225476Y-8928000D01*
X11225476Y-8928000D02*
X11235000Y-8937524D01*
X11235000Y-8937524D02*
X11244524Y-8956571D01*
X11244524Y-8956571D02*
X11244524Y-8966095D01*
X11244524Y-8966095D02*
X11235000Y-8985143D01*
X11235000Y-8985143D02*
X11225476Y-8994667D01*
X11225476Y-8994667D02*
X11206429Y-9004190D01*
X11206429Y-9004190D02*
X11168333Y-9004190D01*
X11168333Y-9004190D02*
X11149286Y-9013714D01*
X11149286Y-9013714D02*
X11139762Y-9023238D01*
X11139762Y-9023238D02*
X11130238Y-9042286D01*
X11130238Y-9042286D02*
X11130238Y-9080381D01*
X11130238Y-9080381D02*
X11139762Y-9099429D01*
X11139762Y-9099429D02*
X11149286Y-9108952D01*
X11149286Y-9108952D02*
X11168333Y-9118476D01*
X11168333Y-9118476D02*
X11206429Y-9118476D01*
X11206429Y-9118476D02*
X11225476Y-9108952D01*
X11225476Y-9108952D02*
X11235000Y-9099429D01*
X11235000Y-9099429D02*
X11244524Y-9080381D01*
X11244524Y-9080381D02*
X11244524Y-9042286D01*
X11244524Y-9042286D02*
X11235000Y-9023238D01*
X11235000Y-9023238D02*
X11225476Y-9013714D01*
X11225476Y-9013714D02*
X11206429Y-9004190D01*
X11320714Y-8918476D02*
X11320714Y-8956571D01*
X11396905Y-8918476D02*
X11396905Y-8956571D01*
X11659762Y-9194667D02*
X11650238Y-9185143D01*
X11650238Y-9185143D02*
X11631191Y-9156571D01*
X11631191Y-9156571D02*
X11621667Y-9137524D01*
X11621667Y-9137524D02*
X11612143Y-9108952D01*
X11612143Y-9108952D02*
X11602619Y-9061333D01*
X11602619Y-9061333D02*
X11602619Y-9023238D01*
X11602619Y-9023238D02*
X11612143Y-8975619D01*
X11612143Y-8975619D02*
X11621667Y-8947048D01*
X11621667Y-8947048D02*
X11631191Y-8928000D01*
X11631191Y-8928000D02*
X11650238Y-8899429D01*
X11650238Y-8899429D02*
X11659762Y-8889905D01*
X11726429Y-8937524D02*
X11735952Y-8928000D01*
X11735952Y-8928000D02*
X11755000Y-8918476D01*
X11755000Y-8918476D02*
X11802619Y-8918476D01*
X11802619Y-8918476D02*
X11821667Y-8928000D01*
X11821667Y-8928000D02*
X11831191Y-8937524D01*
X11831191Y-8937524D02*
X11840714Y-8956571D01*
X11840714Y-8956571D02*
X11840714Y-8975619D01*
X11840714Y-8975619D02*
X11831191Y-9004190D01*
X11831191Y-9004190D02*
X11716905Y-9118476D01*
X11716905Y-9118476D02*
X11840714Y-9118476D01*
X12031191Y-9118476D02*
X11916905Y-9118476D01*
X11974048Y-9118476D02*
X11974048Y-8918476D01*
X11974048Y-8918476D02*
X11955000Y-8947048D01*
X11955000Y-8947048D02*
X11935952Y-8966095D01*
X11935952Y-8966095D02*
X11916905Y-8975619D01*
X12126429Y-9118476D02*
X12164524Y-9118476D01*
X12164524Y-9118476D02*
X12183572Y-9108952D01*
X12183572Y-9108952D02*
X12193095Y-9099429D01*
X12193095Y-9099429D02*
X12212143Y-9070857D01*
X12212143Y-9070857D02*
X12221667Y-9032762D01*
X12221667Y-9032762D02*
X12221667Y-8956571D01*
X12221667Y-8956571D02*
X12212143Y-8937524D01*
X12212143Y-8937524D02*
X12202619Y-8928000D01*
X12202619Y-8928000D02*
X12183572Y-8918476D01*
X12183572Y-8918476D02*
X12145476Y-8918476D01*
X12145476Y-8918476D02*
X12126429Y-8928000D01*
X12126429Y-8928000D02*
X12116905Y-8937524D01*
X12116905Y-8937524D02*
X12107381Y-8956571D01*
X12107381Y-8956571D02*
X12107381Y-9004190D01*
X12107381Y-9004190D02*
X12116905Y-9023238D01*
X12116905Y-9023238D02*
X12126429Y-9032762D01*
X12126429Y-9032762D02*
X12145476Y-9042286D01*
X12145476Y-9042286D02*
X12183572Y-9042286D01*
X12183572Y-9042286D02*
X12202619Y-9032762D01*
X12202619Y-9032762D02*
X12212143Y-9023238D01*
X12212143Y-9023238D02*
X12221667Y-9004190D01*
X12427381Y-9118476D02*
X12427381Y-8918476D01*
X12513095Y-9118476D02*
X12513095Y-9013714D01*
X12513095Y-9013714D02*
X12503572Y-8994667D01*
X12503572Y-8994667D02*
X12484524Y-8985143D01*
X12484524Y-8985143D02*
X12455952Y-8985143D01*
X12455952Y-8985143D02*
X12436905Y-8994667D01*
X12436905Y-8994667D02*
X12427381Y-9004190D01*
X12636905Y-9118476D02*
X12617857Y-9108952D01*
X12617857Y-9108952D02*
X12608333Y-9099429D01*
X12608333Y-9099429D02*
X12598810Y-9080381D01*
X12598810Y-9080381D02*
X12598810Y-9023238D01*
X12598810Y-9023238D02*
X12608333Y-9004190D01*
X12608333Y-9004190D02*
X12617857Y-8994667D01*
X12617857Y-8994667D02*
X12636905Y-8985143D01*
X12636905Y-8985143D02*
X12665476Y-8985143D01*
X12665476Y-8985143D02*
X12684524Y-8994667D01*
X12684524Y-8994667D02*
X12694048Y-9004190D01*
X12694048Y-9004190D02*
X12703572Y-9023238D01*
X12703572Y-9023238D02*
X12703572Y-9080381D01*
X12703572Y-9080381D02*
X12694048Y-9099429D01*
X12694048Y-9099429D02*
X12684524Y-9108952D01*
X12684524Y-9108952D02*
X12665476Y-9118476D01*
X12665476Y-9118476D02*
X12636905Y-9118476D01*
X12817857Y-9118476D02*
X12798810Y-9108952D01*
X12798810Y-9108952D02*
X12789286Y-9089905D01*
X12789286Y-9089905D02*
X12789286Y-8918476D01*
X12970238Y-9108952D02*
X12951191Y-9118476D01*
X12951191Y-9118476D02*
X12913095Y-9118476D01*
X12913095Y-9118476D02*
X12894048Y-9108952D01*
X12894048Y-9108952D02*
X12884524Y-9089905D01*
X12884524Y-9089905D02*
X12884524Y-9013714D01*
X12884524Y-9013714D02*
X12894048Y-8994667D01*
X12894048Y-8994667D02*
X12913095Y-8985143D01*
X12913095Y-8985143D02*
X12951191Y-8985143D01*
X12951191Y-8985143D02*
X12970238Y-8994667D01*
X12970238Y-8994667D02*
X12979762Y-9013714D01*
X12979762Y-9013714D02*
X12979762Y-9032762D01*
X12979762Y-9032762D02*
X12884524Y-9051810D01*
X13055953Y-9108952D02*
X13075000Y-9118476D01*
X13075000Y-9118476D02*
X13113095Y-9118476D01*
X13113095Y-9118476D02*
X13132143Y-9108952D01*
X13132143Y-9108952D02*
X13141667Y-9089905D01*
X13141667Y-9089905D02*
X13141667Y-9080381D01*
X13141667Y-9080381D02*
X13132143Y-9061333D01*
X13132143Y-9061333D02*
X13113095Y-9051810D01*
X13113095Y-9051810D02*
X13084524Y-9051810D01*
X13084524Y-9051810D02*
X13065476Y-9042286D01*
X13065476Y-9042286D02*
X13055953Y-9023238D01*
X13055953Y-9023238D02*
X13055953Y-9013714D01*
X13055953Y-9013714D02*
X13065476Y-8994667D01*
X13065476Y-8994667D02*
X13084524Y-8985143D01*
X13084524Y-8985143D02*
X13113095Y-8985143D01*
X13113095Y-8985143D02*
X13132143Y-8994667D01*
X13208334Y-9194667D02*
X13217857Y-9185143D01*
X13217857Y-9185143D02*
X13236905Y-9156571D01*
X13236905Y-9156571D02*
X13246429Y-9137524D01*
X13246429Y-9137524D02*
X13255953Y-9108952D01*
X13255953Y-9108952D02*
X13265476Y-9061333D01*
X13265476Y-9061333D02*
X13265476Y-9023238D01*
X13265476Y-9023238D02*
X13255953Y-8975619D01*
X13255953Y-8975619D02*
X13246429Y-8947048D01*
X13246429Y-8947048D02*
X13236905Y-8928000D01*
X13236905Y-8928000D02*
X13217857Y-8899429D01*
X13217857Y-8899429D02*
X13208334Y-8889905D01*
D13*
X8195000Y-9309000D02*
G75*
G03*
X8195000Y-9309000I-20000J0D01*
G01*
D11*
X8480714Y-9182476D02*
X8499762Y-9182476D01*
X8499762Y-9182476D02*
X8518810Y-9192000D01*
X8518810Y-9192000D02*
X8528333Y-9201524D01*
X8528333Y-9201524D02*
X8537857Y-9220571D01*
X8537857Y-9220571D02*
X8547381Y-9258667D01*
X8547381Y-9258667D02*
X8547381Y-9306286D01*
X8547381Y-9306286D02*
X8537857Y-9344381D01*
X8537857Y-9344381D02*
X8528333Y-9363429D01*
X8528333Y-9363429D02*
X8518810Y-9372952D01*
X8518810Y-9372952D02*
X8499762Y-9382476D01*
X8499762Y-9382476D02*
X8480714Y-9382476D01*
X8480714Y-9382476D02*
X8461667Y-9372952D01*
X8461667Y-9372952D02*
X8452143Y-9363429D01*
X8452143Y-9363429D02*
X8442619Y-9344381D01*
X8442619Y-9344381D02*
X8433095Y-9306286D01*
X8433095Y-9306286D02*
X8433095Y-9258667D01*
X8433095Y-9258667D02*
X8442619Y-9220571D01*
X8442619Y-9220571D02*
X8452143Y-9201524D01*
X8452143Y-9201524D02*
X8461667Y-9192000D01*
X8461667Y-9192000D02*
X8480714Y-9182476D01*
X8633095Y-9363429D02*
X8642619Y-9372952D01*
X8642619Y-9372952D02*
X8633095Y-9382476D01*
X8633095Y-9382476D02*
X8623571Y-9372952D01*
X8623571Y-9372952D02*
X8633095Y-9363429D01*
X8633095Y-9363429D02*
X8633095Y-9382476D01*
X8814048Y-9249143D02*
X8814048Y-9382476D01*
X8766429Y-9172952D02*
X8718810Y-9315810D01*
X8718810Y-9315810D02*
X8842619Y-9315810D01*
X8956905Y-9182476D02*
X8975952Y-9182476D01*
X8975952Y-9182476D02*
X8995000Y-9192000D01*
X8995000Y-9192000D02*
X9004524Y-9201524D01*
X9004524Y-9201524D02*
X9014048Y-9220571D01*
X9014048Y-9220571D02*
X9023571Y-9258667D01*
X9023571Y-9258667D02*
X9023571Y-9306286D01*
X9023571Y-9306286D02*
X9014048Y-9344381D01*
X9014048Y-9344381D02*
X9004524Y-9363429D01*
X9004524Y-9363429D02*
X8995000Y-9372952D01*
X8995000Y-9372952D02*
X8975952Y-9382476D01*
X8975952Y-9382476D02*
X8956905Y-9382476D01*
X8956905Y-9382476D02*
X8937857Y-9372952D01*
X8937857Y-9372952D02*
X8928333Y-9363429D01*
X8928333Y-9363429D02*
X8918810Y-9344381D01*
X8918810Y-9344381D02*
X8909286Y-9306286D01*
X8909286Y-9306286D02*
X8909286Y-9258667D01*
X8909286Y-9258667D02*
X8918810Y-9220571D01*
X8918810Y-9220571D02*
X8928333Y-9201524D01*
X8928333Y-9201524D02*
X8937857Y-9192000D01*
X8937857Y-9192000D02*
X8956905Y-9182476D01*
X9147381Y-9182476D02*
X9166429Y-9182476D01*
X9166429Y-9182476D02*
X9185476Y-9192000D01*
X9185476Y-9192000D02*
X9195000Y-9201524D01*
X9195000Y-9201524D02*
X9204524Y-9220571D01*
X9204524Y-9220571D02*
X9214048Y-9258667D01*
X9214048Y-9258667D02*
X9214048Y-9306286D01*
X9214048Y-9306286D02*
X9204524Y-9344381D01*
X9204524Y-9344381D02*
X9195000Y-9363429D01*
X9195000Y-9363429D02*
X9185476Y-9372952D01*
X9185476Y-9372952D02*
X9166429Y-9382476D01*
X9166429Y-9382476D02*
X9147381Y-9382476D01*
X9147381Y-9382476D02*
X9128333Y-9372952D01*
X9128333Y-9372952D02*
X9118810Y-9363429D01*
X9118810Y-9363429D02*
X9109286Y-9344381D01*
X9109286Y-9344381D02*
X9099762Y-9306286D01*
X9099762Y-9306286D02*
X9099762Y-9258667D01*
X9099762Y-9258667D02*
X9109286Y-9220571D01*
X9109286Y-9220571D02*
X9118810Y-9201524D01*
X9118810Y-9201524D02*
X9128333Y-9192000D01*
X9128333Y-9192000D02*
X9147381Y-9182476D01*
X9299762Y-9382476D02*
X9299762Y-9249143D01*
X9299762Y-9268190D02*
X9309286Y-9258667D01*
X9309286Y-9258667D02*
X9328333Y-9249143D01*
X9328333Y-9249143D02*
X9356905Y-9249143D01*
X9356905Y-9249143D02*
X9375952Y-9258667D01*
X9375952Y-9258667D02*
X9385476Y-9277714D01*
X9385476Y-9277714D02*
X9385476Y-9382476D01*
X9385476Y-9277714D02*
X9395000Y-9258667D01*
X9395000Y-9258667D02*
X9414048Y-9249143D01*
X9414048Y-9249143D02*
X9442619Y-9249143D01*
X9442619Y-9249143D02*
X9461667Y-9258667D01*
X9461667Y-9258667D02*
X9471191Y-9277714D01*
X9471191Y-9277714D02*
X9471191Y-9382476D01*
X9566429Y-9382476D02*
X9566429Y-9249143D01*
X9566429Y-9268190D02*
X9575952Y-9258667D01*
X9575952Y-9258667D02*
X9595000Y-9249143D01*
X9595000Y-9249143D02*
X9623572Y-9249143D01*
X9623572Y-9249143D02*
X9642619Y-9258667D01*
X9642619Y-9258667D02*
X9652143Y-9277714D01*
X9652143Y-9277714D02*
X9652143Y-9382476D01*
X9652143Y-9277714D02*
X9661667Y-9258667D01*
X9661667Y-9258667D02*
X9680714Y-9249143D01*
X9680714Y-9249143D02*
X9709286Y-9249143D01*
X9709286Y-9249143D02*
X9728333Y-9258667D01*
X9728333Y-9258667D02*
X9737857Y-9277714D01*
X9737857Y-9277714D02*
X9737857Y-9382476D01*
X10095952Y-9172952D02*
X9924524Y-9430095D01*
X10320714Y-9182476D02*
X10339762Y-9182476D01*
X10339762Y-9182476D02*
X10358810Y-9192000D01*
X10358810Y-9192000D02*
X10368333Y-9201524D01*
X10368333Y-9201524D02*
X10377857Y-9220571D01*
X10377857Y-9220571D02*
X10387381Y-9258667D01*
X10387381Y-9258667D02*
X10387381Y-9306286D01*
X10387381Y-9306286D02*
X10377857Y-9344381D01*
X10377857Y-9344381D02*
X10368333Y-9363429D01*
X10368333Y-9363429D02*
X10358810Y-9372952D01*
X10358810Y-9372952D02*
X10339762Y-9382476D01*
X10339762Y-9382476D02*
X10320714Y-9382476D01*
X10320714Y-9382476D02*
X10301667Y-9372952D01*
X10301667Y-9372952D02*
X10292143Y-9363429D01*
X10292143Y-9363429D02*
X10282619Y-9344381D01*
X10282619Y-9344381D02*
X10273095Y-9306286D01*
X10273095Y-9306286D02*
X10273095Y-9258667D01*
X10273095Y-9258667D02*
X10282619Y-9220571D01*
X10282619Y-9220571D02*
X10292143Y-9201524D01*
X10292143Y-9201524D02*
X10301667Y-9192000D01*
X10301667Y-9192000D02*
X10320714Y-9182476D01*
X10473095Y-9363429D02*
X10482619Y-9372952D01*
X10482619Y-9372952D02*
X10473095Y-9382476D01*
X10473095Y-9382476D02*
X10463572Y-9372952D01*
X10463572Y-9372952D02*
X10473095Y-9363429D01*
X10473095Y-9363429D02*
X10473095Y-9382476D01*
X10606429Y-9182476D02*
X10625476Y-9182476D01*
X10625476Y-9182476D02*
X10644524Y-9192000D01*
X10644524Y-9192000D02*
X10654048Y-9201524D01*
X10654048Y-9201524D02*
X10663572Y-9220571D01*
X10663572Y-9220571D02*
X10673095Y-9258667D01*
X10673095Y-9258667D02*
X10673095Y-9306286D01*
X10673095Y-9306286D02*
X10663572Y-9344381D01*
X10663572Y-9344381D02*
X10654048Y-9363429D01*
X10654048Y-9363429D02*
X10644524Y-9372952D01*
X10644524Y-9372952D02*
X10625476Y-9382476D01*
X10625476Y-9382476D02*
X10606429Y-9382476D01*
X10606429Y-9382476D02*
X10587381Y-9372952D01*
X10587381Y-9372952D02*
X10577857Y-9363429D01*
X10577857Y-9363429D02*
X10568333Y-9344381D01*
X10568333Y-9344381D02*
X10558810Y-9306286D01*
X10558810Y-9306286D02*
X10558810Y-9258667D01*
X10558810Y-9258667D02*
X10568333Y-9220571D01*
X10568333Y-9220571D02*
X10577857Y-9201524D01*
X10577857Y-9201524D02*
X10587381Y-9192000D01*
X10587381Y-9192000D02*
X10606429Y-9182476D01*
X10863572Y-9382476D02*
X10749286Y-9382476D01*
X10806429Y-9382476D02*
X10806429Y-9182476D01*
X10806429Y-9182476D02*
X10787381Y-9211048D01*
X10787381Y-9211048D02*
X10768333Y-9230095D01*
X10768333Y-9230095D02*
X10749286Y-9239619D01*
X11044524Y-9182476D02*
X10949286Y-9182476D01*
X10949286Y-9182476D02*
X10939762Y-9277714D01*
X10939762Y-9277714D02*
X10949286Y-9268190D01*
X10949286Y-9268190D02*
X10968333Y-9258667D01*
X10968333Y-9258667D02*
X11015953Y-9258667D01*
X11015953Y-9258667D02*
X11035000Y-9268190D01*
X11035000Y-9268190D02*
X11044524Y-9277714D01*
X11044524Y-9277714D02*
X11054048Y-9296762D01*
X11054048Y-9296762D02*
X11054048Y-9344381D01*
X11054048Y-9344381D02*
X11044524Y-9363429D01*
X11044524Y-9363429D02*
X11035000Y-9372952D01*
X11035000Y-9372952D02*
X11015953Y-9382476D01*
X11015953Y-9382476D02*
X10968333Y-9382476D01*
X10968333Y-9382476D02*
X10949286Y-9372952D01*
X10949286Y-9372952D02*
X10939762Y-9363429D01*
X11120714Y-9182476D02*
X11254048Y-9182476D01*
X11254048Y-9182476D02*
X11168333Y-9382476D01*
X11320714Y-9182476D02*
X11320714Y-9220571D01*
X11396905Y-9182476D02*
X11396905Y-9220571D01*
X11659762Y-9458667D02*
X11650238Y-9449143D01*
X11650238Y-9449143D02*
X11631191Y-9420571D01*
X11631191Y-9420571D02*
X11621667Y-9401524D01*
X11621667Y-9401524D02*
X11612143Y-9372952D01*
X11612143Y-9372952D02*
X11602619Y-9325333D01*
X11602619Y-9325333D02*
X11602619Y-9287238D01*
X11602619Y-9287238D02*
X11612143Y-9239619D01*
X11612143Y-9239619D02*
X11621667Y-9211048D01*
X11621667Y-9211048D02*
X11631191Y-9192000D01*
X11631191Y-9192000D02*
X11650238Y-9163429D01*
X11650238Y-9163429D02*
X11659762Y-9153905D01*
X11716905Y-9182476D02*
X11840714Y-9182476D01*
X11840714Y-9182476D02*
X11774048Y-9258667D01*
X11774048Y-9258667D02*
X11802619Y-9258667D01*
X11802619Y-9258667D02*
X11821667Y-9268190D01*
X11821667Y-9268190D02*
X11831191Y-9277714D01*
X11831191Y-9277714D02*
X11840714Y-9296762D01*
X11840714Y-9296762D02*
X11840714Y-9344381D01*
X11840714Y-9344381D02*
X11831191Y-9363429D01*
X11831191Y-9363429D02*
X11821667Y-9372952D01*
X11821667Y-9372952D02*
X11802619Y-9382476D01*
X11802619Y-9382476D02*
X11745476Y-9382476D01*
X11745476Y-9382476D02*
X11726429Y-9372952D01*
X11726429Y-9372952D02*
X11716905Y-9363429D01*
X12046429Y-9382476D02*
X12046429Y-9182476D01*
X12132143Y-9382476D02*
X12132143Y-9277714D01*
X12132143Y-9277714D02*
X12122619Y-9258667D01*
X12122619Y-9258667D02*
X12103572Y-9249143D01*
X12103572Y-9249143D02*
X12075000Y-9249143D01*
X12075000Y-9249143D02*
X12055952Y-9258667D01*
X12055952Y-9258667D02*
X12046429Y-9268190D01*
X12255952Y-9382476D02*
X12236905Y-9372952D01*
X12236905Y-9372952D02*
X12227381Y-9363429D01*
X12227381Y-9363429D02*
X12217857Y-9344381D01*
X12217857Y-9344381D02*
X12217857Y-9287238D01*
X12217857Y-9287238D02*
X12227381Y-9268190D01*
X12227381Y-9268190D02*
X12236905Y-9258667D01*
X12236905Y-9258667D02*
X12255952Y-9249143D01*
X12255952Y-9249143D02*
X12284524Y-9249143D01*
X12284524Y-9249143D02*
X12303572Y-9258667D01*
X12303572Y-9258667D02*
X12313095Y-9268190D01*
X12313095Y-9268190D02*
X12322619Y-9287238D01*
X12322619Y-9287238D02*
X12322619Y-9344381D01*
X12322619Y-9344381D02*
X12313095Y-9363429D01*
X12313095Y-9363429D02*
X12303572Y-9372952D01*
X12303572Y-9372952D02*
X12284524Y-9382476D01*
X12284524Y-9382476D02*
X12255952Y-9382476D01*
X12436905Y-9382476D02*
X12417857Y-9372952D01*
X12417857Y-9372952D02*
X12408333Y-9353905D01*
X12408333Y-9353905D02*
X12408333Y-9182476D01*
X12589286Y-9372952D02*
X12570238Y-9382476D01*
X12570238Y-9382476D02*
X12532143Y-9382476D01*
X12532143Y-9382476D02*
X12513095Y-9372952D01*
X12513095Y-9372952D02*
X12503572Y-9353905D01*
X12503572Y-9353905D02*
X12503572Y-9277714D01*
X12503572Y-9277714D02*
X12513095Y-9258667D01*
X12513095Y-9258667D02*
X12532143Y-9249143D01*
X12532143Y-9249143D02*
X12570238Y-9249143D01*
X12570238Y-9249143D02*
X12589286Y-9258667D01*
X12589286Y-9258667D02*
X12598810Y-9277714D01*
X12598810Y-9277714D02*
X12598810Y-9296762D01*
X12598810Y-9296762D02*
X12503572Y-9315810D01*
X12675000Y-9372952D02*
X12694048Y-9382476D01*
X12694048Y-9382476D02*
X12732143Y-9382476D01*
X12732143Y-9382476D02*
X12751191Y-9372952D01*
X12751191Y-9372952D02*
X12760714Y-9353905D01*
X12760714Y-9353905D02*
X12760714Y-9344381D01*
X12760714Y-9344381D02*
X12751191Y-9325333D01*
X12751191Y-9325333D02*
X12732143Y-9315810D01*
X12732143Y-9315810D02*
X12703572Y-9315810D01*
X12703572Y-9315810D02*
X12684524Y-9306286D01*
X12684524Y-9306286D02*
X12675000Y-9287238D01*
X12675000Y-9287238D02*
X12675000Y-9277714D01*
X12675000Y-9277714D02*
X12684524Y-9258667D01*
X12684524Y-9258667D02*
X12703572Y-9249143D01*
X12703572Y-9249143D02*
X12732143Y-9249143D01*
X12732143Y-9249143D02*
X12751191Y-9258667D01*
X12827381Y-9458667D02*
X12836905Y-9449143D01*
X12836905Y-9449143D02*
X12855953Y-9420571D01*
X12855953Y-9420571D02*
X12865476Y-9401524D01*
X12865476Y-9401524D02*
X12875000Y-9372952D01*
X12875000Y-9372952D02*
X12884524Y-9325333D01*
X12884524Y-9325333D02*
X12884524Y-9287238D01*
X12884524Y-9287238D02*
X12875000Y-9239619D01*
X12875000Y-9239619D02*
X12865476Y-9211048D01*
X12865476Y-9211048D02*
X12855953Y-9192000D01*
X12855953Y-9192000D02*
X12836905Y-9163429D01*
X12836905Y-9163429D02*
X12827381Y-9153905D01*
D14*
X8165000Y-9543000D02*
X8165000Y-9603000D01*
X8135000Y-9573000D02*
X8195000Y-9573000D01*
D11*
X8480714Y-9446476D02*
X8499762Y-9446476D01*
X8499762Y-9446476D02*
X8518810Y-9456000D01*
X8518810Y-9456000D02*
X8528333Y-9465524D01*
X8528333Y-9465524D02*
X8537857Y-9484571D01*
X8537857Y-9484571D02*
X8547381Y-9522667D01*
X8547381Y-9522667D02*
X8547381Y-9570286D01*
X8547381Y-9570286D02*
X8537857Y-9608381D01*
X8537857Y-9608381D02*
X8528333Y-9627429D01*
X8528333Y-9627429D02*
X8518810Y-9636952D01*
X8518810Y-9636952D02*
X8499762Y-9646476D01*
X8499762Y-9646476D02*
X8480714Y-9646476D01*
X8480714Y-9646476D02*
X8461667Y-9636952D01*
X8461667Y-9636952D02*
X8452143Y-9627429D01*
X8452143Y-9627429D02*
X8442619Y-9608381D01*
X8442619Y-9608381D02*
X8433095Y-9570286D01*
X8433095Y-9570286D02*
X8433095Y-9522667D01*
X8433095Y-9522667D02*
X8442619Y-9484571D01*
X8442619Y-9484571D02*
X8452143Y-9465524D01*
X8452143Y-9465524D02*
X8461667Y-9456000D01*
X8461667Y-9456000D02*
X8480714Y-9446476D01*
X8633095Y-9627429D02*
X8642619Y-9636952D01*
X8642619Y-9636952D02*
X8633095Y-9646476D01*
X8633095Y-9646476D02*
X8623571Y-9636952D01*
X8623571Y-9636952D02*
X8633095Y-9627429D01*
X8633095Y-9627429D02*
X8633095Y-9646476D01*
X8814048Y-9446476D02*
X8775952Y-9446476D01*
X8775952Y-9446476D02*
X8756905Y-9456000D01*
X8756905Y-9456000D02*
X8747381Y-9465524D01*
X8747381Y-9465524D02*
X8728333Y-9494095D01*
X8728333Y-9494095D02*
X8718810Y-9532190D01*
X8718810Y-9532190D02*
X8718810Y-9608381D01*
X8718810Y-9608381D02*
X8728333Y-9627429D01*
X8728333Y-9627429D02*
X8737857Y-9636952D01*
X8737857Y-9636952D02*
X8756905Y-9646476D01*
X8756905Y-9646476D02*
X8795000Y-9646476D01*
X8795000Y-9646476D02*
X8814048Y-9636952D01*
X8814048Y-9636952D02*
X8823571Y-9627429D01*
X8823571Y-9627429D02*
X8833095Y-9608381D01*
X8833095Y-9608381D02*
X8833095Y-9560762D01*
X8833095Y-9560762D02*
X8823571Y-9541714D01*
X8823571Y-9541714D02*
X8814048Y-9532190D01*
X8814048Y-9532190D02*
X8795000Y-9522667D01*
X8795000Y-9522667D02*
X8756905Y-9522667D01*
X8756905Y-9522667D02*
X8737857Y-9532190D01*
X8737857Y-9532190D02*
X8728333Y-9541714D01*
X8728333Y-9541714D02*
X8718810Y-9560762D01*
X8956905Y-9446476D02*
X8975952Y-9446476D01*
X8975952Y-9446476D02*
X8995000Y-9456000D01*
X8995000Y-9456000D02*
X9004524Y-9465524D01*
X9004524Y-9465524D02*
X9014048Y-9484571D01*
X9014048Y-9484571D02*
X9023571Y-9522667D01*
X9023571Y-9522667D02*
X9023571Y-9570286D01*
X9023571Y-9570286D02*
X9014048Y-9608381D01*
X9014048Y-9608381D02*
X9004524Y-9627429D01*
X9004524Y-9627429D02*
X8995000Y-9636952D01*
X8995000Y-9636952D02*
X8975952Y-9646476D01*
X8975952Y-9646476D02*
X8956905Y-9646476D01*
X8956905Y-9646476D02*
X8937857Y-9636952D01*
X8937857Y-9636952D02*
X8928333Y-9627429D01*
X8928333Y-9627429D02*
X8918810Y-9608381D01*
X8918810Y-9608381D02*
X8909286Y-9570286D01*
X8909286Y-9570286D02*
X8909286Y-9522667D01*
X8909286Y-9522667D02*
X8918810Y-9484571D01*
X8918810Y-9484571D02*
X8928333Y-9465524D01*
X8928333Y-9465524D02*
X8937857Y-9456000D01*
X8937857Y-9456000D02*
X8956905Y-9446476D01*
X9147381Y-9446476D02*
X9166429Y-9446476D01*
X9166429Y-9446476D02*
X9185476Y-9456000D01*
X9185476Y-9456000D02*
X9195000Y-9465524D01*
X9195000Y-9465524D02*
X9204524Y-9484571D01*
X9204524Y-9484571D02*
X9214048Y-9522667D01*
X9214048Y-9522667D02*
X9214048Y-9570286D01*
X9214048Y-9570286D02*
X9204524Y-9608381D01*
X9204524Y-9608381D02*
X9195000Y-9627429D01*
X9195000Y-9627429D02*
X9185476Y-9636952D01*
X9185476Y-9636952D02*
X9166429Y-9646476D01*
X9166429Y-9646476D02*
X9147381Y-9646476D01*
X9147381Y-9646476D02*
X9128333Y-9636952D01*
X9128333Y-9636952D02*
X9118810Y-9627429D01*
X9118810Y-9627429D02*
X9109286Y-9608381D01*
X9109286Y-9608381D02*
X9099762Y-9570286D01*
X9099762Y-9570286D02*
X9099762Y-9522667D01*
X9099762Y-9522667D02*
X9109286Y-9484571D01*
X9109286Y-9484571D02*
X9118810Y-9465524D01*
X9118810Y-9465524D02*
X9128333Y-9456000D01*
X9128333Y-9456000D02*
X9147381Y-9446476D01*
X9299762Y-9646476D02*
X9299762Y-9513143D01*
X9299762Y-9532190D02*
X9309286Y-9522667D01*
X9309286Y-9522667D02*
X9328333Y-9513143D01*
X9328333Y-9513143D02*
X9356905Y-9513143D01*
X9356905Y-9513143D02*
X9375952Y-9522667D01*
X9375952Y-9522667D02*
X9385476Y-9541714D01*
X9385476Y-9541714D02*
X9385476Y-9646476D01*
X9385476Y-9541714D02*
X9395000Y-9522667D01*
X9395000Y-9522667D02*
X9414048Y-9513143D01*
X9414048Y-9513143D02*
X9442619Y-9513143D01*
X9442619Y-9513143D02*
X9461667Y-9522667D01*
X9461667Y-9522667D02*
X9471191Y-9541714D01*
X9471191Y-9541714D02*
X9471191Y-9646476D01*
X9566429Y-9646476D02*
X9566429Y-9513143D01*
X9566429Y-9532190D02*
X9575952Y-9522667D01*
X9575952Y-9522667D02*
X9595000Y-9513143D01*
X9595000Y-9513143D02*
X9623572Y-9513143D01*
X9623572Y-9513143D02*
X9642619Y-9522667D01*
X9642619Y-9522667D02*
X9652143Y-9541714D01*
X9652143Y-9541714D02*
X9652143Y-9646476D01*
X9652143Y-9541714D02*
X9661667Y-9522667D01*
X9661667Y-9522667D02*
X9680714Y-9513143D01*
X9680714Y-9513143D02*
X9709286Y-9513143D01*
X9709286Y-9513143D02*
X9728333Y-9522667D01*
X9728333Y-9522667D02*
X9737857Y-9541714D01*
X9737857Y-9541714D02*
X9737857Y-9646476D01*
X10095952Y-9436952D02*
X9924524Y-9694095D01*
X10320714Y-9446476D02*
X10339762Y-9446476D01*
X10339762Y-9446476D02*
X10358810Y-9456000D01*
X10358810Y-9456000D02*
X10368333Y-9465524D01*
X10368333Y-9465524D02*
X10377857Y-9484571D01*
X10377857Y-9484571D02*
X10387381Y-9522667D01*
X10387381Y-9522667D02*
X10387381Y-9570286D01*
X10387381Y-9570286D02*
X10377857Y-9608381D01*
X10377857Y-9608381D02*
X10368333Y-9627429D01*
X10368333Y-9627429D02*
X10358810Y-9636952D01*
X10358810Y-9636952D02*
X10339762Y-9646476D01*
X10339762Y-9646476D02*
X10320714Y-9646476D01*
X10320714Y-9646476D02*
X10301667Y-9636952D01*
X10301667Y-9636952D02*
X10292143Y-9627429D01*
X10292143Y-9627429D02*
X10282619Y-9608381D01*
X10282619Y-9608381D02*
X10273095Y-9570286D01*
X10273095Y-9570286D02*
X10273095Y-9522667D01*
X10273095Y-9522667D02*
X10282619Y-9484571D01*
X10282619Y-9484571D02*
X10292143Y-9465524D01*
X10292143Y-9465524D02*
X10301667Y-9456000D01*
X10301667Y-9456000D02*
X10320714Y-9446476D01*
X10473095Y-9627429D02*
X10482619Y-9636952D01*
X10482619Y-9636952D02*
X10473095Y-9646476D01*
X10473095Y-9646476D02*
X10463572Y-9636952D01*
X10463572Y-9636952D02*
X10473095Y-9627429D01*
X10473095Y-9627429D02*
X10473095Y-9646476D01*
X10606429Y-9446476D02*
X10625476Y-9446476D01*
X10625476Y-9446476D02*
X10644524Y-9456000D01*
X10644524Y-9456000D02*
X10654048Y-9465524D01*
X10654048Y-9465524D02*
X10663572Y-9484571D01*
X10663572Y-9484571D02*
X10673095Y-9522667D01*
X10673095Y-9522667D02*
X10673095Y-9570286D01*
X10673095Y-9570286D02*
X10663572Y-9608381D01*
X10663572Y-9608381D02*
X10654048Y-9627429D01*
X10654048Y-9627429D02*
X10644524Y-9636952D01*
X10644524Y-9636952D02*
X10625476Y-9646476D01*
X10625476Y-9646476D02*
X10606429Y-9646476D01*
X10606429Y-9646476D02*
X10587381Y-9636952D01*
X10587381Y-9636952D02*
X10577857Y-9627429D01*
X10577857Y-9627429D02*
X10568333Y-9608381D01*
X10568333Y-9608381D02*
X10558810Y-9570286D01*
X10558810Y-9570286D02*
X10558810Y-9522667D01*
X10558810Y-9522667D02*
X10568333Y-9484571D01*
X10568333Y-9484571D02*
X10577857Y-9465524D01*
X10577857Y-9465524D02*
X10587381Y-9456000D01*
X10587381Y-9456000D02*
X10606429Y-9446476D01*
X10749286Y-9465524D02*
X10758810Y-9456000D01*
X10758810Y-9456000D02*
X10777857Y-9446476D01*
X10777857Y-9446476D02*
X10825476Y-9446476D01*
X10825476Y-9446476D02*
X10844524Y-9456000D01*
X10844524Y-9456000D02*
X10854048Y-9465524D01*
X10854048Y-9465524D02*
X10863572Y-9484571D01*
X10863572Y-9484571D02*
X10863572Y-9503619D01*
X10863572Y-9503619D02*
X10854048Y-9532190D01*
X10854048Y-9532190D02*
X10739762Y-9646476D01*
X10739762Y-9646476D02*
X10863572Y-9646476D01*
X10930238Y-9446476D02*
X11054048Y-9446476D01*
X11054048Y-9446476D02*
X10987381Y-9522667D01*
X10987381Y-9522667D02*
X11015953Y-9522667D01*
X11015953Y-9522667D02*
X11035000Y-9532190D01*
X11035000Y-9532190D02*
X11044524Y-9541714D01*
X11044524Y-9541714D02*
X11054048Y-9560762D01*
X11054048Y-9560762D02*
X11054048Y-9608381D01*
X11054048Y-9608381D02*
X11044524Y-9627429D01*
X11044524Y-9627429D02*
X11035000Y-9636952D01*
X11035000Y-9636952D02*
X11015953Y-9646476D01*
X11015953Y-9646476D02*
X10958810Y-9646476D01*
X10958810Y-9646476D02*
X10939762Y-9636952D01*
X10939762Y-9636952D02*
X10930238Y-9627429D01*
X11225476Y-9446476D02*
X11187381Y-9446476D01*
X11187381Y-9446476D02*
X11168333Y-9456000D01*
X11168333Y-9456000D02*
X11158810Y-9465524D01*
X11158810Y-9465524D02*
X11139762Y-9494095D01*
X11139762Y-9494095D02*
X11130238Y-9532190D01*
X11130238Y-9532190D02*
X11130238Y-9608381D01*
X11130238Y-9608381D02*
X11139762Y-9627429D01*
X11139762Y-9627429D02*
X11149286Y-9636952D01*
X11149286Y-9636952D02*
X11168333Y-9646476D01*
X11168333Y-9646476D02*
X11206429Y-9646476D01*
X11206429Y-9646476D02*
X11225476Y-9636952D01*
X11225476Y-9636952D02*
X11235000Y-9627429D01*
X11235000Y-9627429D02*
X11244524Y-9608381D01*
X11244524Y-9608381D02*
X11244524Y-9560762D01*
X11244524Y-9560762D02*
X11235000Y-9541714D01*
X11235000Y-9541714D02*
X11225476Y-9532190D01*
X11225476Y-9532190D02*
X11206429Y-9522667D01*
X11206429Y-9522667D02*
X11168333Y-9522667D01*
X11168333Y-9522667D02*
X11149286Y-9532190D01*
X11149286Y-9532190D02*
X11139762Y-9541714D01*
X11139762Y-9541714D02*
X11130238Y-9560762D01*
X11320714Y-9446476D02*
X11320714Y-9484571D01*
X11396905Y-9446476D02*
X11396905Y-9484571D01*
X11659762Y-9722667D02*
X11650238Y-9713143D01*
X11650238Y-9713143D02*
X11631191Y-9684571D01*
X11631191Y-9684571D02*
X11621667Y-9665524D01*
X11621667Y-9665524D02*
X11612143Y-9636952D01*
X11612143Y-9636952D02*
X11602619Y-9589333D01*
X11602619Y-9589333D02*
X11602619Y-9551238D01*
X11602619Y-9551238D02*
X11612143Y-9503619D01*
X11612143Y-9503619D02*
X11621667Y-9475048D01*
X11621667Y-9475048D02*
X11631191Y-9456000D01*
X11631191Y-9456000D02*
X11650238Y-9427429D01*
X11650238Y-9427429D02*
X11659762Y-9417905D01*
X11716905Y-9446476D02*
X11850238Y-9446476D01*
X11850238Y-9446476D02*
X11764524Y-9646476D01*
X12046429Y-9646476D02*
X12046429Y-9446476D01*
X12132143Y-9646476D02*
X12132143Y-9541714D01*
X12132143Y-9541714D02*
X12122619Y-9522667D01*
X12122619Y-9522667D02*
X12103572Y-9513143D01*
X12103572Y-9513143D02*
X12075000Y-9513143D01*
X12075000Y-9513143D02*
X12055952Y-9522667D01*
X12055952Y-9522667D02*
X12046429Y-9532190D01*
X12255952Y-9646476D02*
X12236905Y-9636952D01*
X12236905Y-9636952D02*
X12227381Y-9627429D01*
X12227381Y-9627429D02*
X12217857Y-9608381D01*
X12217857Y-9608381D02*
X12217857Y-9551238D01*
X12217857Y-9551238D02*
X12227381Y-9532190D01*
X12227381Y-9532190D02*
X12236905Y-9522667D01*
X12236905Y-9522667D02*
X12255952Y-9513143D01*
X12255952Y-9513143D02*
X12284524Y-9513143D01*
X12284524Y-9513143D02*
X12303572Y-9522667D01*
X12303572Y-9522667D02*
X12313095Y-9532190D01*
X12313095Y-9532190D02*
X12322619Y-9551238D01*
X12322619Y-9551238D02*
X12322619Y-9608381D01*
X12322619Y-9608381D02*
X12313095Y-9627429D01*
X12313095Y-9627429D02*
X12303572Y-9636952D01*
X12303572Y-9636952D02*
X12284524Y-9646476D01*
X12284524Y-9646476D02*
X12255952Y-9646476D01*
X12436905Y-9646476D02*
X12417857Y-9636952D01*
X12417857Y-9636952D02*
X12408333Y-9617905D01*
X12408333Y-9617905D02*
X12408333Y-9446476D01*
X12589286Y-9636952D02*
X12570238Y-9646476D01*
X12570238Y-9646476D02*
X12532143Y-9646476D01*
X12532143Y-9646476D02*
X12513095Y-9636952D01*
X12513095Y-9636952D02*
X12503572Y-9617905D01*
X12503572Y-9617905D02*
X12503572Y-9541714D01*
X12503572Y-9541714D02*
X12513095Y-9522667D01*
X12513095Y-9522667D02*
X12532143Y-9513143D01*
X12532143Y-9513143D02*
X12570238Y-9513143D01*
X12570238Y-9513143D02*
X12589286Y-9522667D01*
X12589286Y-9522667D02*
X12598810Y-9541714D01*
X12598810Y-9541714D02*
X12598810Y-9560762D01*
X12598810Y-9560762D02*
X12503572Y-9579810D01*
X12675000Y-9636952D02*
X12694048Y-9646476D01*
X12694048Y-9646476D02*
X12732143Y-9646476D01*
X12732143Y-9646476D02*
X12751191Y-9636952D01*
X12751191Y-9636952D02*
X12760714Y-9617905D01*
X12760714Y-9617905D02*
X12760714Y-9608381D01*
X12760714Y-9608381D02*
X12751191Y-9589333D01*
X12751191Y-9589333D02*
X12732143Y-9579810D01*
X12732143Y-9579810D02*
X12703572Y-9579810D01*
X12703572Y-9579810D02*
X12684524Y-9570286D01*
X12684524Y-9570286D02*
X12675000Y-9551238D01*
X12675000Y-9551238D02*
X12675000Y-9541714D01*
X12675000Y-9541714D02*
X12684524Y-9522667D01*
X12684524Y-9522667D02*
X12703572Y-9513143D01*
X12703572Y-9513143D02*
X12732143Y-9513143D01*
X12732143Y-9513143D02*
X12751191Y-9522667D01*
X12827381Y-9722667D02*
X12836905Y-9713143D01*
X12836905Y-9713143D02*
X12855953Y-9684571D01*
X12855953Y-9684571D02*
X12865476Y-9665524D01*
X12865476Y-9665524D02*
X12875000Y-9636952D01*
X12875000Y-9636952D02*
X12884524Y-9589333D01*
X12884524Y-9589333D02*
X12884524Y-9551238D01*
X12884524Y-9551238D02*
X12875000Y-9503619D01*
X12875000Y-9503619D02*
X12865476Y-9475048D01*
X12865476Y-9475048D02*
X12855953Y-9456000D01*
X12855953Y-9456000D02*
X12836905Y-9427429D01*
X12836905Y-9427429D02*
X12827381Y-9417905D01*
D14*
X8186213Y-9858213D02*
X8186213Y-9815787D01*
X8143787Y-9815787D01*
X8143787Y-9858213D01*
X8186213Y-9858213D01*
D11*
X8480714Y-9710476D02*
X8499762Y-9710476D01*
X8499762Y-9710476D02*
X8518810Y-9720000D01*
X8518810Y-9720000D02*
X8528333Y-9729524D01*
X8528333Y-9729524D02*
X8537857Y-9748571D01*
X8537857Y-9748571D02*
X8547381Y-9786667D01*
X8547381Y-9786667D02*
X8547381Y-9834286D01*
X8547381Y-9834286D02*
X8537857Y-9872381D01*
X8537857Y-9872381D02*
X8528333Y-9891429D01*
X8528333Y-9891429D02*
X8518810Y-9900952D01*
X8518810Y-9900952D02*
X8499762Y-9910476D01*
X8499762Y-9910476D02*
X8480714Y-9910476D01*
X8480714Y-9910476D02*
X8461667Y-9900952D01*
X8461667Y-9900952D02*
X8452143Y-9891429D01*
X8452143Y-9891429D02*
X8442619Y-9872381D01*
X8442619Y-9872381D02*
X8433095Y-9834286D01*
X8433095Y-9834286D02*
X8433095Y-9786667D01*
X8433095Y-9786667D02*
X8442619Y-9748571D01*
X8442619Y-9748571D02*
X8452143Y-9729524D01*
X8452143Y-9729524D02*
X8461667Y-9720000D01*
X8461667Y-9720000D02*
X8480714Y-9710476D01*
X8633095Y-9891429D02*
X8642619Y-9900952D01*
X8642619Y-9900952D02*
X8633095Y-9910476D01*
X8633095Y-9910476D02*
X8623571Y-9900952D01*
X8623571Y-9900952D02*
X8633095Y-9891429D01*
X8633095Y-9891429D02*
X8633095Y-9910476D01*
X8814048Y-9710476D02*
X8775952Y-9710476D01*
X8775952Y-9710476D02*
X8756905Y-9720000D01*
X8756905Y-9720000D02*
X8747381Y-9729524D01*
X8747381Y-9729524D02*
X8728333Y-9758095D01*
X8728333Y-9758095D02*
X8718810Y-9796190D01*
X8718810Y-9796190D02*
X8718810Y-9872381D01*
X8718810Y-9872381D02*
X8728333Y-9891429D01*
X8728333Y-9891429D02*
X8737857Y-9900952D01*
X8737857Y-9900952D02*
X8756905Y-9910476D01*
X8756905Y-9910476D02*
X8795000Y-9910476D01*
X8795000Y-9910476D02*
X8814048Y-9900952D01*
X8814048Y-9900952D02*
X8823571Y-9891429D01*
X8823571Y-9891429D02*
X8833095Y-9872381D01*
X8833095Y-9872381D02*
X8833095Y-9824762D01*
X8833095Y-9824762D02*
X8823571Y-9805714D01*
X8823571Y-9805714D02*
X8814048Y-9796190D01*
X8814048Y-9796190D02*
X8795000Y-9786667D01*
X8795000Y-9786667D02*
X8756905Y-9786667D01*
X8756905Y-9786667D02*
X8737857Y-9796190D01*
X8737857Y-9796190D02*
X8728333Y-9805714D01*
X8728333Y-9805714D02*
X8718810Y-9824762D01*
X8956905Y-9710476D02*
X8975952Y-9710476D01*
X8975952Y-9710476D02*
X8995000Y-9720000D01*
X8995000Y-9720000D02*
X9004524Y-9729524D01*
X9004524Y-9729524D02*
X9014048Y-9748571D01*
X9014048Y-9748571D02*
X9023571Y-9786667D01*
X9023571Y-9786667D02*
X9023571Y-9834286D01*
X9023571Y-9834286D02*
X9014048Y-9872381D01*
X9014048Y-9872381D02*
X9004524Y-9891429D01*
X9004524Y-9891429D02*
X8995000Y-9900952D01*
X8995000Y-9900952D02*
X8975952Y-9910476D01*
X8975952Y-9910476D02*
X8956905Y-9910476D01*
X8956905Y-9910476D02*
X8937857Y-9900952D01*
X8937857Y-9900952D02*
X8928333Y-9891429D01*
X8928333Y-9891429D02*
X8918810Y-9872381D01*
X8918810Y-9872381D02*
X8909286Y-9834286D01*
X8909286Y-9834286D02*
X8909286Y-9786667D01*
X8909286Y-9786667D02*
X8918810Y-9748571D01*
X8918810Y-9748571D02*
X8928333Y-9729524D01*
X8928333Y-9729524D02*
X8937857Y-9720000D01*
X8937857Y-9720000D02*
X8956905Y-9710476D01*
X9147381Y-9710476D02*
X9166429Y-9710476D01*
X9166429Y-9710476D02*
X9185476Y-9720000D01*
X9185476Y-9720000D02*
X9195000Y-9729524D01*
X9195000Y-9729524D02*
X9204524Y-9748571D01*
X9204524Y-9748571D02*
X9214048Y-9786667D01*
X9214048Y-9786667D02*
X9214048Y-9834286D01*
X9214048Y-9834286D02*
X9204524Y-9872381D01*
X9204524Y-9872381D02*
X9195000Y-9891429D01*
X9195000Y-9891429D02*
X9185476Y-9900952D01*
X9185476Y-9900952D02*
X9166429Y-9910476D01*
X9166429Y-9910476D02*
X9147381Y-9910476D01*
X9147381Y-9910476D02*
X9128333Y-9900952D01*
X9128333Y-9900952D02*
X9118810Y-9891429D01*
X9118810Y-9891429D02*
X9109286Y-9872381D01*
X9109286Y-9872381D02*
X9099762Y-9834286D01*
X9099762Y-9834286D02*
X9099762Y-9786667D01*
X9099762Y-9786667D02*
X9109286Y-9748571D01*
X9109286Y-9748571D02*
X9118810Y-9729524D01*
X9118810Y-9729524D02*
X9128333Y-9720000D01*
X9128333Y-9720000D02*
X9147381Y-9710476D01*
X9299762Y-9910476D02*
X9299762Y-9777143D01*
X9299762Y-9796190D02*
X9309286Y-9786667D01*
X9309286Y-9786667D02*
X9328333Y-9777143D01*
X9328333Y-9777143D02*
X9356905Y-9777143D01*
X9356905Y-9777143D02*
X9375952Y-9786667D01*
X9375952Y-9786667D02*
X9385476Y-9805714D01*
X9385476Y-9805714D02*
X9385476Y-9910476D01*
X9385476Y-9805714D02*
X9395000Y-9786667D01*
X9395000Y-9786667D02*
X9414048Y-9777143D01*
X9414048Y-9777143D02*
X9442619Y-9777143D01*
X9442619Y-9777143D02*
X9461667Y-9786667D01*
X9461667Y-9786667D02*
X9471191Y-9805714D01*
X9471191Y-9805714D02*
X9471191Y-9910476D01*
X9566429Y-9910476D02*
X9566429Y-9777143D01*
X9566429Y-9796190D02*
X9575952Y-9786667D01*
X9575952Y-9786667D02*
X9595000Y-9777143D01*
X9595000Y-9777143D02*
X9623572Y-9777143D01*
X9623572Y-9777143D02*
X9642619Y-9786667D01*
X9642619Y-9786667D02*
X9652143Y-9805714D01*
X9652143Y-9805714D02*
X9652143Y-9910476D01*
X9652143Y-9805714D02*
X9661667Y-9786667D01*
X9661667Y-9786667D02*
X9680714Y-9777143D01*
X9680714Y-9777143D02*
X9709286Y-9777143D01*
X9709286Y-9777143D02*
X9728333Y-9786667D01*
X9728333Y-9786667D02*
X9737857Y-9805714D01*
X9737857Y-9805714D02*
X9737857Y-9910476D01*
X10095952Y-9700952D02*
X9924524Y-9958095D01*
X10320714Y-9710476D02*
X10339762Y-9710476D01*
X10339762Y-9710476D02*
X10358810Y-9720000D01*
X10358810Y-9720000D02*
X10368333Y-9729524D01*
X10368333Y-9729524D02*
X10377857Y-9748571D01*
X10377857Y-9748571D02*
X10387381Y-9786667D01*
X10387381Y-9786667D02*
X10387381Y-9834286D01*
X10387381Y-9834286D02*
X10377857Y-9872381D01*
X10377857Y-9872381D02*
X10368333Y-9891429D01*
X10368333Y-9891429D02*
X10358810Y-9900952D01*
X10358810Y-9900952D02*
X10339762Y-9910476D01*
X10339762Y-9910476D02*
X10320714Y-9910476D01*
X10320714Y-9910476D02*
X10301667Y-9900952D01*
X10301667Y-9900952D02*
X10292143Y-9891429D01*
X10292143Y-9891429D02*
X10282619Y-9872381D01*
X10282619Y-9872381D02*
X10273095Y-9834286D01*
X10273095Y-9834286D02*
X10273095Y-9786667D01*
X10273095Y-9786667D02*
X10282619Y-9748571D01*
X10282619Y-9748571D02*
X10292143Y-9729524D01*
X10292143Y-9729524D02*
X10301667Y-9720000D01*
X10301667Y-9720000D02*
X10320714Y-9710476D01*
X10473095Y-9891429D02*
X10482619Y-9900952D01*
X10482619Y-9900952D02*
X10473095Y-9910476D01*
X10473095Y-9910476D02*
X10463572Y-9900952D01*
X10463572Y-9900952D02*
X10473095Y-9891429D01*
X10473095Y-9891429D02*
X10473095Y-9910476D01*
X10606429Y-9710476D02*
X10625476Y-9710476D01*
X10625476Y-9710476D02*
X10644524Y-9720000D01*
X10644524Y-9720000D02*
X10654048Y-9729524D01*
X10654048Y-9729524D02*
X10663572Y-9748571D01*
X10663572Y-9748571D02*
X10673095Y-9786667D01*
X10673095Y-9786667D02*
X10673095Y-9834286D01*
X10673095Y-9834286D02*
X10663572Y-9872381D01*
X10663572Y-9872381D02*
X10654048Y-9891429D01*
X10654048Y-9891429D02*
X10644524Y-9900952D01*
X10644524Y-9900952D02*
X10625476Y-9910476D01*
X10625476Y-9910476D02*
X10606429Y-9910476D01*
X10606429Y-9910476D02*
X10587381Y-9900952D01*
X10587381Y-9900952D02*
X10577857Y-9891429D01*
X10577857Y-9891429D02*
X10568333Y-9872381D01*
X10568333Y-9872381D02*
X10558810Y-9834286D01*
X10558810Y-9834286D02*
X10558810Y-9786667D01*
X10558810Y-9786667D02*
X10568333Y-9748571D01*
X10568333Y-9748571D02*
X10577857Y-9729524D01*
X10577857Y-9729524D02*
X10587381Y-9720000D01*
X10587381Y-9720000D02*
X10606429Y-9710476D01*
X10749286Y-9729524D02*
X10758810Y-9720000D01*
X10758810Y-9720000D02*
X10777857Y-9710476D01*
X10777857Y-9710476D02*
X10825476Y-9710476D01*
X10825476Y-9710476D02*
X10844524Y-9720000D01*
X10844524Y-9720000D02*
X10854048Y-9729524D01*
X10854048Y-9729524D02*
X10863572Y-9748571D01*
X10863572Y-9748571D02*
X10863572Y-9767619D01*
X10863572Y-9767619D02*
X10854048Y-9796190D01*
X10854048Y-9796190D02*
X10739762Y-9910476D01*
X10739762Y-9910476D02*
X10863572Y-9910476D01*
X10930238Y-9710476D02*
X11054048Y-9710476D01*
X11054048Y-9710476D02*
X10987381Y-9786667D01*
X10987381Y-9786667D02*
X11015953Y-9786667D01*
X11015953Y-9786667D02*
X11035000Y-9796190D01*
X11035000Y-9796190D02*
X11044524Y-9805714D01*
X11044524Y-9805714D02*
X11054048Y-9824762D01*
X11054048Y-9824762D02*
X11054048Y-9872381D01*
X11054048Y-9872381D02*
X11044524Y-9891429D01*
X11044524Y-9891429D02*
X11035000Y-9900952D01*
X11035000Y-9900952D02*
X11015953Y-9910476D01*
X11015953Y-9910476D02*
X10958810Y-9910476D01*
X10958810Y-9910476D02*
X10939762Y-9900952D01*
X10939762Y-9900952D02*
X10930238Y-9891429D01*
X11225476Y-9710476D02*
X11187381Y-9710476D01*
X11187381Y-9710476D02*
X11168333Y-9720000D01*
X11168333Y-9720000D02*
X11158810Y-9729524D01*
X11158810Y-9729524D02*
X11139762Y-9758095D01*
X11139762Y-9758095D02*
X11130238Y-9796190D01*
X11130238Y-9796190D02*
X11130238Y-9872381D01*
X11130238Y-9872381D02*
X11139762Y-9891429D01*
X11139762Y-9891429D02*
X11149286Y-9900952D01*
X11149286Y-9900952D02*
X11168333Y-9910476D01*
X11168333Y-9910476D02*
X11206429Y-9910476D01*
X11206429Y-9910476D02*
X11225476Y-9900952D01*
X11225476Y-9900952D02*
X11235000Y-9891429D01*
X11235000Y-9891429D02*
X11244524Y-9872381D01*
X11244524Y-9872381D02*
X11244524Y-9824762D01*
X11244524Y-9824762D02*
X11235000Y-9805714D01*
X11235000Y-9805714D02*
X11225476Y-9796190D01*
X11225476Y-9796190D02*
X11206429Y-9786667D01*
X11206429Y-9786667D02*
X11168333Y-9786667D01*
X11168333Y-9786667D02*
X11149286Y-9796190D01*
X11149286Y-9796190D02*
X11139762Y-9805714D01*
X11139762Y-9805714D02*
X11130238Y-9824762D01*
X11320714Y-9710476D02*
X11320714Y-9748571D01*
X11396905Y-9710476D02*
X11396905Y-9748571D01*
X11659762Y-9986667D02*
X11650238Y-9977143D01*
X11650238Y-9977143D02*
X11631191Y-9948571D01*
X11631191Y-9948571D02*
X11621667Y-9929524D01*
X11621667Y-9929524D02*
X11612143Y-9900952D01*
X11612143Y-9900952D02*
X11602619Y-9853333D01*
X11602619Y-9853333D02*
X11602619Y-9815238D01*
X11602619Y-9815238D02*
X11612143Y-9767619D01*
X11612143Y-9767619D02*
X11621667Y-9739048D01*
X11621667Y-9739048D02*
X11631191Y-9720000D01*
X11631191Y-9720000D02*
X11650238Y-9691429D01*
X11650238Y-9691429D02*
X11659762Y-9681905D01*
X11774048Y-9710476D02*
X11793095Y-9710476D01*
X11793095Y-9710476D02*
X11812143Y-9720000D01*
X11812143Y-9720000D02*
X11821667Y-9729524D01*
X11821667Y-9729524D02*
X11831191Y-9748571D01*
X11831191Y-9748571D02*
X11840714Y-9786667D01*
X11840714Y-9786667D02*
X11840714Y-9834286D01*
X11840714Y-9834286D02*
X11831191Y-9872381D01*
X11831191Y-9872381D02*
X11821667Y-9891429D01*
X11821667Y-9891429D02*
X11812143Y-9900952D01*
X11812143Y-9900952D02*
X11793095Y-9910476D01*
X11793095Y-9910476D02*
X11774048Y-9910476D01*
X11774048Y-9910476D02*
X11755000Y-9900952D01*
X11755000Y-9900952D02*
X11745476Y-9891429D01*
X11745476Y-9891429D02*
X11735952Y-9872381D01*
X11735952Y-9872381D02*
X11726429Y-9834286D01*
X11726429Y-9834286D02*
X11726429Y-9786667D01*
X11726429Y-9786667D02*
X11735952Y-9748571D01*
X11735952Y-9748571D02*
X11745476Y-9729524D01*
X11745476Y-9729524D02*
X11755000Y-9720000D01*
X11755000Y-9720000D02*
X11774048Y-9710476D01*
X12046429Y-9910476D02*
X12046429Y-9710476D01*
X12132143Y-9910476D02*
X12132143Y-9805714D01*
X12132143Y-9805714D02*
X12122619Y-9786667D01*
X12122619Y-9786667D02*
X12103572Y-9777143D01*
X12103572Y-9777143D02*
X12075000Y-9777143D01*
X12075000Y-9777143D02*
X12055952Y-9786667D01*
X12055952Y-9786667D02*
X12046429Y-9796190D01*
X12255952Y-9910476D02*
X12236905Y-9900952D01*
X12236905Y-9900952D02*
X12227381Y-9891429D01*
X12227381Y-9891429D02*
X12217857Y-9872381D01*
X12217857Y-9872381D02*
X12217857Y-9815238D01*
X12217857Y-9815238D02*
X12227381Y-9796190D01*
X12227381Y-9796190D02*
X12236905Y-9786667D01*
X12236905Y-9786667D02*
X12255952Y-9777143D01*
X12255952Y-9777143D02*
X12284524Y-9777143D01*
X12284524Y-9777143D02*
X12303572Y-9786667D01*
X12303572Y-9786667D02*
X12313095Y-9796190D01*
X12313095Y-9796190D02*
X12322619Y-9815238D01*
X12322619Y-9815238D02*
X12322619Y-9872381D01*
X12322619Y-9872381D02*
X12313095Y-9891429D01*
X12313095Y-9891429D02*
X12303572Y-9900952D01*
X12303572Y-9900952D02*
X12284524Y-9910476D01*
X12284524Y-9910476D02*
X12255952Y-9910476D01*
X12436905Y-9910476D02*
X12417857Y-9900952D01*
X12417857Y-9900952D02*
X12408333Y-9881905D01*
X12408333Y-9881905D02*
X12408333Y-9710476D01*
X12589286Y-9900952D02*
X12570238Y-9910476D01*
X12570238Y-9910476D02*
X12532143Y-9910476D01*
X12532143Y-9910476D02*
X12513095Y-9900952D01*
X12513095Y-9900952D02*
X12503572Y-9881905D01*
X12503572Y-9881905D02*
X12503572Y-9805714D01*
X12503572Y-9805714D02*
X12513095Y-9786667D01*
X12513095Y-9786667D02*
X12532143Y-9777143D01*
X12532143Y-9777143D02*
X12570238Y-9777143D01*
X12570238Y-9777143D02*
X12589286Y-9786667D01*
X12589286Y-9786667D02*
X12598810Y-9805714D01*
X12598810Y-9805714D02*
X12598810Y-9824762D01*
X12598810Y-9824762D02*
X12503572Y-9843810D01*
X12675000Y-9900952D02*
X12694048Y-9910476D01*
X12694048Y-9910476D02*
X12732143Y-9910476D01*
X12732143Y-9910476D02*
X12751191Y-9900952D01*
X12751191Y-9900952D02*
X12760714Y-9881905D01*
X12760714Y-9881905D02*
X12760714Y-9872381D01*
X12760714Y-9872381D02*
X12751191Y-9853333D01*
X12751191Y-9853333D02*
X12732143Y-9843810D01*
X12732143Y-9843810D02*
X12703572Y-9843810D01*
X12703572Y-9843810D02*
X12684524Y-9834286D01*
X12684524Y-9834286D02*
X12675000Y-9815238D01*
X12675000Y-9815238D02*
X12675000Y-9805714D01*
X12675000Y-9805714D02*
X12684524Y-9786667D01*
X12684524Y-9786667D02*
X12703572Y-9777143D01*
X12703572Y-9777143D02*
X12732143Y-9777143D01*
X12732143Y-9777143D02*
X12751191Y-9786667D01*
X12966429Y-9834286D02*
X13118810Y-9834286D01*
X13042619Y-9910476D02*
X13042619Y-9758095D01*
X13419762Y-9777143D02*
X13419762Y-9910476D01*
X13372143Y-9700952D02*
X13324524Y-9843810D01*
X13324524Y-9843810D02*
X13448333Y-9843810D01*
X13635000Y-9900952D02*
X13654048Y-9910476D01*
X13654048Y-9910476D02*
X13692143Y-9910476D01*
X13692143Y-9910476D02*
X13711191Y-9900952D01*
X13711191Y-9900952D02*
X13720714Y-9881905D01*
X13720714Y-9881905D02*
X13720714Y-9872381D01*
X13720714Y-9872381D02*
X13711191Y-9853333D01*
X13711191Y-9853333D02*
X13692143Y-9843810D01*
X13692143Y-9843810D02*
X13663572Y-9843810D01*
X13663572Y-9843810D02*
X13644524Y-9834286D01*
X13644524Y-9834286D02*
X13635000Y-9815238D01*
X13635000Y-9815238D02*
X13635000Y-9805714D01*
X13635000Y-9805714D02*
X13644524Y-9786667D01*
X13644524Y-9786667D02*
X13663572Y-9777143D01*
X13663572Y-9777143D02*
X13692143Y-9777143D01*
X13692143Y-9777143D02*
X13711191Y-9786667D01*
X13835000Y-9910476D02*
X13815953Y-9900952D01*
X13815953Y-9900952D02*
X13806429Y-9881905D01*
X13806429Y-9881905D02*
X13806429Y-9710476D01*
X13939762Y-9910476D02*
X13920714Y-9900952D01*
X13920714Y-9900952D02*
X13911191Y-9891429D01*
X13911191Y-9891429D02*
X13901667Y-9872381D01*
X13901667Y-9872381D02*
X13901667Y-9815238D01*
X13901667Y-9815238D02*
X13911191Y-9796190D01*
X13911191Y-9796190D02*
X13920714Y-9786667D01*
X13920714Y-9786667D02*
X13939762Y-9777143D01*
X13939762Y-9777143D02*
X13968334Y-9777143D01*
X13968334Y-9777143D02*
X13987381Y-9786667D01*
X13987381Y-9786667D02*
X13996905Y-9796190D01*
X13996905Y-9796190D02*
X14006429Y-9815238D01*
X14006429Y-9815238D02*
X14006429Y-9872381D01*
X14006429Y-9872381D02*
X13996905Y-9891429D01*
X13996905Y-9891429D02*
X13987381Y-9900952D01*
X13987381Y-9900952D02*
X13968334Y-9910476D01*
X13968334Y-9910476D02*
X13939762Y-9910476D01*
X14063572Y-9777143D02*
X14139762Y-9777143D01*
X14092143Y-9710476D02*
X14092143Y-9881905D01*
X14092143Y-9881905D02*
X14101667Y-9900952D01*
X14101667Y-9900952D02*
X14120714Y-9910476D01*
X14120714Y-9910476D02*
X14139762Y-9910476D01*
X14196905Y-9900952D02*
X14215953Y-9910476D01*
X14215953Y-9910476D02*
X14254048Y-9910476D01*
X14254048Y-9910476D02*
X14273095Y-9900952D01*
X14273095Y-9900952D02*
X14282619Y-9881905D01*
X14282619Y-9881905D02*
X14282619Y-9872381D01*
X14282619Y-9872381D02*
X14273095Y-9853333D01*
X14273095Y-9853333D02*
X14254048Y-9843810D01*
X14254048Y-9843810D02*
X14225476Y-9843810D01*
X14225476Y-9843810D02*
X14206429Y-9834286D01*
X14206429Y-9834286D02*
X14196905Y-9815238D01*
X14196905Y-9815238D02*
X14196905Y-9805714D01*
X14196905Y-9805714D02*
X14206429Y-9786667D01*
X14206429Y-9786667D02*
X14225476Y-9777143D01*
X14225476Y-9777143D02*
X14254048Y-9777143D01*
X14254048Y-9777143D02*
X14273095Y-9786667D01*
X14349286Y-9986667D02*
X14358810Y-9977143D01*
X14358810Y-9977143D02*
X14377857Y-9948571D01*
X14377857Y-9948571D02*
X14387381Y-9929524D01*
X14387381Y-9929524D02*
X14396905Y-9900952D01*
X14396905Y-9900952D02*
X14406429Y-9853333D01*
X14406429Y-9853333D02*
X14406429Y-9815238D01*
X14406429Y-9815238D02*
X14396905Y-9767619D01*
X14396905Y-9767619D02*
X14387381Y-9739048D01*
X14387381Y-9739048D02*
X14377857Y-9720000D01*
X14377857Y-9720000D02*
X14358810Y-9691429D01*
X14358810Y-9691429D02*
X14349286Y-9681905D01*
M02*
