M48
; DRILL file {KiCad (7.0.0)} date Wed Mar  1 10:12:41 2023
; FORMAT={-:-/ absolute / inch / decimal}
; #@! TF.CreationDate,2023-03-01T10:12:41+08:00
; #@! TF.GenerationSoftware,Kicad,Pcbnew,(7.0.0)
; #@! TF.FileFunction,Plated,1,2,PTH
FMAT,2
INCH
; #@! TA.AperFunction,Plated,PTH,ViaDrill
T1C0.0098
; #@! TA.AperFunction,Plated,PTH,ViaDrill
T2C0.0157
; #@! TA.AperFunction,Plated,PTH,ViaDrill
T3C0.0236
; #@! TA.AperFunction,Plated,PTH,ComponentDrill
T4C0.0236
%
G90
G05
T1
X3.276Y-2.446
X3.54Y-2.3
X3.54Y-2.33
X3.54Y-2.36
X3.54Y-2.39
X3.57Y-2.3
X3.57Y-2.33
X3.57Y-2.36
X3.57Y-2.39
X3.6Y-2.3
X3.6Y-2.33
X3.6Y-2.36
X3.6Y-2.39
X3.6Y-2.725
X3.6Y-2.755
X3.6Y-2.785
X3.62Y-2.985
X3.625Y-2.705
X3.625Y-2.89
X3.63Y-2.3
X3.63Y-2.33
X3.63Y-2.36
X3.63Y-2.39
X3.65Y-2.985
X3.655Y-2.705
X3.655Y-2.89
X3.66Y-2.3
X3.66Y-2.33
X3.66Y-2.36
X3.66Y-2.39
X3.685Y-2.705
X3.685Y-2.89
X3.69Y-2.3
X3.69Y-2.33
X3.69Y-2.36
X3.69Y-2.39
X3.72Y-2.3
X3.72Y-2.33
X3.72Y-2.36
X3.72Y-2.39
X3.73Y-2.85
X3.745Y-3.075
X3.75Y-2.3
X3.75Y-2.33
X3.75Y-2.36
X3.75Y-2.39
X3.75Y-2.875
X3.765Y-3.185
X3.77Y-3.1
X3.775Y-2.61
X3.775Y-2.64
X3.775Y-2.665
X3.775Y-2.695
X3.775Y-2.815
X3.775Y-2.855
X3.779Y-2.993
X3.78Y-2.3
X3.78Y-2.33
X3.78Y-2.36
X3.78Y-2.39
X3.79Y-2.585
X3.8Y-3.18
X3.81Y-2.3
X3.81Y-2.33
X3.81Y-2.36
X3.81Y-2.39
X3.825Y-2.585
X3.83Y-3.18
X3.84Y-2.3
X3.84Y-2.33
X3.84Y-2.36
X3.84Y-2.39
X3.86Y-3.18
X3.87Y-2.3
X3.87Y-2.33
X3.87Y-2.36
X3.87Y-2.39
X3.9Y-2.447
X3.94Y-2.935
X3.945Y-2.64
X3.965Y-2.915
X3.97Y-3.1
X3.975Y-2.61
X3.975Y-2.64
X4.0Y-3.07
X4.0Y-3.1
X4.005Y-2.61
X4.035Y-2.61
X4.035Y-3.04
X4.035Y-3.07
X4.035Y-3.1
X4.065Y-3.03
X4.067Y-2.847
X4.08Y-2.735
X4.08Y-2.77
X4.08Y-2.805
X4.09Y-2.89
X4.09Y-2.98
X4.09Y-3.01
X4.0975Y-2.9255
X4.108Y-2.3616
X4.115Y-2.735
X4.115Y-2.77
X4.115Y-2.805
X4.119Y-3.244
X4.1229Y-3.1631
X4.136Y-2.2851
X4.1575Y-2.2625
X4.171Y-2.965
X4.189Y-2.31
X4.191Y-2.34
X4.206Y-2.965
X4.238Y-2.994
X4.2697Y-3.0153
X4.297Y-2.981
X4.33Y-2.71
X4.33Y-2.74
X4.33Y-2.77
X4.33Y-2.86
X4.33Y-2.89
X4.33Y-2.92
X4.33Y-2.95
X4.33Y-2.98
X4.33Y-3.01
X4.348Y-3.1634
X4.36Y-2.71
X4.36Y-2.74
X4.36Y-2.77
X4.36Y-2.86
X4.36Y-2.89
X4.36Y-2.92
X4.36Y-2.95
X4.36Y-2.98
X4.36Y-3.01
X4.389Y-2.579
X4.39Y-2.71
X4.39Y-2.74
X4.39Y-2.77
X4.39Y-2.86
X4.39Y-2.89
X4.39Y-2.92
X4.39Y-2.95
X4.39Y-2.98
X4.39Y-3.01
X4.485Y-3.28
X4.515Y-3.28
X4.525Y-3.065
X4.525Y-3.095
X4.525Y-3.125
X4.535Y-2.985
X4.545Y-3.28
X4.555Y-3.095
X4.555Y-3.125
X4.565Y-2.82
X4.567Y-2.9235
X4.595Y-2.79
X4.595Y-2.82
X4.625Y-2.76
X4.625Y-2.79
X4.625Y-2.82
X4.645Y-2.415
X4.675Y-2.385
X4.695Y-2.36
X4.695Y-3.28
X4.715Y-2.335
X4.7185Y-2.5525
X4.72Y-2.67
X4.72Y-2.695
X4.72Y-2.72
X4.72Y-2.75
X4.72Y-2.78
X4.72Y-2.985
X4.725Y-3.28
X4.742Y-2.877
X4.755Y-3.28
X4.77Y-2.985
X4.775Y-2.879
X4.785Y-2.675
X4.785Y-2.73
X4.785Y-2.79
X4.79Y-3.28
X4.805Y-3.0
X4.82Y-3.28
X4.835Y-3.0
X4.875Y-2.535
X4.875Y-2.565
X4.875Y-2.82
X4.88Y-3.0
X4.89Y-3.275
X4.895Y-2.84
X4.895Y-2.87
X4.9Y-2.925
X4.905Y-2.985
X4.905Y-3.02
X4.905Y-3.07
X4.92Y-3.135
X4.92Y-3.2
X4.92Y-3.275
X4.945Y-2.92
X4.95Y-3.275
X4.965Y-3.08
X4.97Y-2.205
X4.97Y-2.235
X5.0Y-2.205
X5.0Y-2.235
X5.03Y-2.205
X5.03Y-2.235
X5.043Y-2.371
X5.06Y-2.205
X5.06Y-2.235
X5.085Y-2.27
X5.09Y-2.205
X5.09Y-2.235
X5.145Y-3.06
X5.155Y-2.91
X5.155Y-2.94
X5.155Y-2.97
X5.155Y-3.0
X5.155Y-3.03
T2
X4.086Y-2.452
X4.91Y-2.7031
X4.92Y-2.49
T3
X3.798Y-3.227
X3.943Y-2.75
X3.966Y-3.202
X4.471Y-3.112
X4.674Y-2.862
X4.698Y-2.438
X4.9Y-2.311
T4
G00X4.9676Y-2.4199
M15
G01X5.0109Y-2.4199
M16
G05
G00X4.9676Y-2.7601
M15
G01X5.0109Y-2.7601
M16
G05
G00X5.142Y-2.4199
M15
G01X5.1656Y-2.4199
M16
G05
G00X5.142Y-2.7601
M15
G01X5.1656Y-2.7601
M16
G05
T0
M30
