%TF.GenerationSoftware,KiCad,Pcbnew,(7.0.0)*%
%TF.CreationDate,2023-03-01T10:12:44+08:00*%
%TF.ProjectId,DAP_Link_V0_1,4441505f-4c69-46e6-9b5f-56305f312e6b,rev?*%
%TF.SameCoordinates,Original*%
%TF.FileFunction,Paste,Top*%
%TF.FilePolarity,Positive*%
%FSLAX46Y46*%
G04 Gerber Fmt 4.6, Leading zero omitted, Abs format (unit mm)*
G04 Created by KiCad (PCBNEW (7.0.0)) date 2023-03-01 10:12:44*
%MOMM*%
%LPD*%
G01*
G04 APERTURE LIST*
G04 Aperture macros list*
%AMRoundRect*
0 Rectangle with rounded corners*
0 $1 Rounding radius*
0 $2 $3 $4 $5 $6 $7 $8 $9 X,Y pos of 4 corners*
0 Add a 4 corners polygon primitive as box body*
4,1,4,$2,$3,$4,$5,$6,$7,$8,$9,$2,$3,0*
0 Add four circle primitives for the rounded corners*
1,1,$1+$1,$2,$3*
1,1,$1+$1,$4,$5*
1,1,$1+$1,$6,$7*
1,1,$1+$1,$8,$9*
0 Add four rect primitives between the rounded corners*
20,1,$1+$1,$2,$3,$4,$5,0*
20,1,$1+$1,$4,$5,$6,$7,0*
20,1,$1+$1,$6,$7,$8,$9,0*
20,1,$1+$1,$8,$9,$2,$3,0*%
G04 Aperture macros list end*
%ADD10RoundRect,0.087500X-1.012500X-0.087500X1.012500X-0.087500X1.012500X0.087500X-1.012500X0.087500X0*%
%ADD11RoundRect,0.137500X0.525000X0.137500X-0.525000X0.137500X-0.525000X-0.137500X0.525000X-0.137500X0*%
%ADD12RoundRect,0.237500X-0.300000X-0.237500X0.300000X-0.237500X0.300000X0.237500X-0.300000X0.237500X0*%
%ADD13RoundRect,0.237500X0.300000X0.237500X-0.300000X0.237500X-0.300000X-0.237500X0.300000X-0.237500X0*%
%ADD14RoundRect,0.237500X0.250000X0.237500X-0.250000X0.237500X-0.250000X-0.237500X0.250000X-0.237500X0*%
%ADD15RoundRect,0.300000X-0.300000X-1.390000X0.300000X-1.390000X0.300000X1.390000X-0.300000X1.390000X0*%
%ADD16RoundRect,0.150000X-0.150000X-0.650000X0.150000X-0.650000X0.150000X0.650000X-0.150000X0.650000X0*%
%ADD17RoundRect,0.075000X-0.700000X-0.075000X0.700000X-0.075000X0.700000X0.075000X-0.700000X0.075000X0*%
%ADD18RoundRect,0.075000X-0.075000X-0.700000X0.075000X-0.700000X0.075000X0.700000X-0.075000X0.700000X0*%
%ADD19RoundRect,0.237500X-0.250000X-0.237500X0.250000X-0.237500X0.250000X0.237500X-0.250000X0.237500X0*%
%ADD20RoundRect,0.237500X-0.287500X-0.237500X0.287500X-0.237500X0.287500X0.237500X-0.287500X0.237500X0*%
%ADD21R,1.150000X0.600000*%
%ADD22R,1.150000X0.300000*%
%ADD23RoundRect,0.450000X-0.450000X-0.550000X0.450000X-0.550000X0.450000X0.550000X-0.450000X0.550000X0*%
%ADD24RoundRect,0.450000X0.450000X0.550000X-0.450000X0.550000X-0.450000X-0.550000X0.450000X-0.550000X0*%
%ADD25RoundRect,0.250000X-0.375000X-0.625000X0.375000X-0.625000X0.375000X0.625000X-0.375000X0.625000X0*%
%ADD26RoundRect,0.381000X0.889000X0.381000X-0.889000X0.381000X-0.889000X-0.381000X0.889000X-0.381000X0*%
%ADD27R,1.400000X1.200000*%
%ADD28RoundRect,0.150000X-0.150000X0.650000X-0.150000X-0.650000X0.150000X-0.650000X0.150000X0.650000X0*%
G04 APERTURE END LIST*
D10*
%TO.C,OLED1*%
X101600000Y-64518200D03*
X101600000Y-63868200D03*
X101600000Y-63218200D03*
X101600000Y-62568200D03*
X101600000Y-61918200D03*
X101600000Y-61268200D03*
X101600000Y-60618200D03*
X101600000Y-59968200D03*
X101600000Y-59318200D03*
X101600000Y-58668200D03*
X101600000Y-58018200D03*
X101600000Y-57368200D03*
X101600000Y-56718200D03*
X101600000Y-56068200D03*
X101600000Y-55418200D03*
%TD*%
D11*
%TO.C,U3*%
X125768500Y-77150000D03*
X125768500Y-76200000D03*
X125768500Y-75250000D03*
X123368500Y-75250000D03*
X123368500Y-77150000D03*
%TD*%
D12*
%TO.C,C5*%
X84228000Y-62195000D03*
X85953000Y-62195000D03*
%TD*%
D13*
%TO.C,C8*%
X124949500Y-82169000D03*
X123224500Y-82169000D03*
%TD*%
D14*
%TO.C,R10*%
X122713500Y-68580000D03*
X120888500Y-68580000D03*
%TD*%
D12*
%TO.C,C13*%
X113599000Y-80518000D03*
X115324000Y-80518000D03*
%TD*%
D15*
%TO.C,J1*%
X124643000Y-55979000D03*
X130643000Y-55979000D03*
D16*
X126143000Y-58939000D03*
X127143000Y-58939000D03*
X128143000Y-58939000D03*
X129143000Y-58939000D03*
%TD*%
D17*
%TO.C,U2*%
X102025000Y-68807000D03*
X102025000Y-69307000D03*
X102025000Y-69807000D03*
X102025000Y-70307000D03*
X102025000Y-70807000D03*
X102025000Y-71307000D03*
X102025000Y-71807000D03*
X102025000Y-72307000D03*
X102025000Y-72807000D03*
X102025000Y-73307000D03*
X102025000Y-73807000D03*
X102025000Y-74307000D03*
X102025000Y-74807000D03*
X102025000Y-75307000D03*
X102025000Y-75807000D03*
X102025000Y-76307000D03*
D18*
X103950000Y-78232000D03*
X104450000Y-78232000D03*
X104950000Y-78232000D03*
X105450000Y-78232000D03*
X105950000Y-78232000D03*
X106450000Y-78232000D03*
X106950000Y-78232000D03*
X107450000Y-78232000D03*
X107950000Y-78232000D03*
X108450000Y-78232000D03*
X108950000Y-78232000D03*
X109450000Y-78232000D03*
X109950000Y-78232000D03*
X110450000Y-78232000D03*
X110950000Y-78232000D03*
X111450000Y-78232000D03*
D17*
X113375000Y-76307000D03*
X113375000Y-75807000D03*
X113375000Y-75307000D03*
X113375000Y-74807000D03*
X113375000Y-74307000D03*
X113375000Y-73807000D03*
X113375000Y-73307000D03*
X113375000Y-72807000D03*
X113375000Y-72307000D03*
X113375000Y-71807000D03*
X113375000Y-71307000D03*
X113375000Y-70807000D03*
X113375000Y-70307000D03*
X113375000Y-69807000D03*
X113375000Y-69307000D03*
X113375000Y-68807000D03*
D18*
X111450000Y-66882000D03*
X110950000Y-66882000D03*
X110450000Y-66882000D03*
X109950000Y-66882000D03*
X109450000Y-66882000D03*
X108950000Y-66882000D03*
X108450000Y-66882000D03*
X107950000Y-66882000D03*
X107450000Y-66882000D03*
X106950000Y-66882000D03*
X106450000Y-66882000D03*
X105950000Y-66882000D03*
X105450000Y-66882000D03*
X104950000Y-66882000D03*
X104450000Y-66882000D03*
X103950000Y-66882000D03*
%TD*%
D19*
%TO.C,R8*%
X120888500Y-65278000D03*
X122713500Y-65278000D03*
%TD*%
D12*
%TO.C,C17*%
X128042500Y-75311000D03*
X129767500Y-75311000D03*
%TD*%
D13*
%TO.C,C4*%
X85953000Y-63719000D03*
X84228000Y-63719000D03*
%TD*%
%TO.C,C7*%
X98779500Y-73279000D03*
X97054500Y-73279000D03*
%TD*%
D20*
%TO.C,D2*%
X120926000Y-57023000D03*
X122676000Y-57023000D03*
%TD*%
D19*
%TO.C,R5*%
X97004500Y-76581000D03*
X98829500Y-76581000D03*
%TD*%
D21*
%TO.C,USB1*%
X126160999Y-68985999D03*
X126160999Y-68185999D03*
D22*
X126160999Y-67035999D03*
X126160999Y-66035999D03*
X126160999Y-65535999D03*
X126160999Y-67535999D03*
D21*
X126160999Y-62585999D03*
X126160999Y-63385999D03*
D22*
X126160999Y-64035999D03*
X126160999Y-65035999D03*
X126160999Y-66535999D03*
X126160999Y-64535999D03*
%TD*%
D13*
%TO.C,C3*%
X98779500Y-71628000D03*
X97054500Y-71628000D03*
%TD*%
D12*
%TO.C,C18*%
X123224500Y-73533000D03*
X124949500Y-73533000D03*
%TD*%
D23*
%TO.C,SW2*%
X98673000Y-82423000D03*
X103273000Y-82423000D03*
%TD*%
D19*
%TO.C,R7*%
X120888500Y-66929000D03*
X122713500Y-66929000D03*
%TD*%
%TO.C,R6*%
X113522500Y-82169000D03*
X115347500Y-82169000D03*
%TD*%
D13*
%TO.C,C10*%
X98779500Y-79883000D03*
X97054500Y-79883000D03*
%TD*%
D24*
%TO.C,SW1*%
X111401000Y-82423000D03*
X106801000Y-82423000D03*
%TD*%
D25*
%TO.C,F1*%
X126878000Y-73152000D03*
X129678000Y-73152000D03*
%TD*%
D13*
%TO.C,C14*%
X98779500Y-69977000D03*
X97054500Y-69977000D03*
%TD*%
%TO.C,C11*%
X98779500Y-78232000D03*
X97054500Y-78232000D03*
%TD*%
D19*
%TO.C,R3*%
X120888500Y-58674000D03*
X122713500Y-58674000D03*
%TD*%
D14*
%TO.C,R11*%
X122713500Y-60325000D03*
X120888500Y-60325000D03*
%TD*%
D13*
%TO.C,C12*%
X98779500Y-68326000D03*
X97054500Y-68326000D03*
%TD*%
%TO.C,C2*%
X85953000Y-57623000D03*
X84228000Y-57623000D03*
%TD*%
%TO.C,C1*%
X85953000Y-59147000D03*
X84228000Y-59147000D03*
%TD*%
D19*
%TO.C,R4*%
X97004500Y-66675000D03*
X98829500Y-66675000D03*
%TD*%
D12*
%TO.C,C9*%
X97054500Y-74930000D03*
X98779500Y-74930000D03*
%TD*%
D26*
%TO.C,J2*%
X93218000Y-82296000D03*
X93218000Y-79756000D03*
X93218000Y-77216000D03*
X93218000Y-74676000D03*
%TD*%
D19*
%TO.C,R9*%
X120888500Y-63627000D03*
X122713500Y-63627000D03*
%TD*%
%TO.C,R1*%
X84178000Y-60671000D03*
X86003000Y-60671000D03*
%TD*%
D13*
%TO.C,C6*%
X85953000Y-56099000D03*
X84228000Y-56099000D03*
%TD*%
D12*
%TO.C,C19*%
X123224500Y-78867000D03*
X124949500Y-78867000D03*
%TD*%
D27*
%TO.C,Y1*%
X94959499Y-69848999D03*
X92759499Y-69848999D03*
X92759499Y-71548999D03*
X94959499Y-71548999D03*
%TD*%
D14*
%TO.C,R2*%
X122713500Y-71882000D03*
X120888500Y-71882000D03*
%TD*%
D28*
%TO.C,U1*%
X121166000Y-74632000D03*
X119896000Y-74632000D03*
X118626000Y-74632000D03*
X117356000Y-74632000D03*
X117356000Y-81832000D03*
X118626000Y-81832000D03*
X119896000Y-81832000D03*
X121166000Y-81832000D03*
%TD*%
D12*
%TO.C,C15*%
X120938500Y-61976000D03*
X122663500Y-61976000D03*
%TD*%
%TO.C,C16*%
X128042500Y-76962000D03*
X129767500Y-76962000D03*
%TD*%
%TO.C,C20*%
X123224500Y-80518000D03*
X124949500Y-80518000D03*
%TD*%
D20*
%TO.C,D1*%
X120926000Y-70231000D03*
X122676000Y-70231000D03*
%TD*%
M02*
